<svg width="48" height="32" viewBox="0 0 48 32" fill="none" xmlns="http://www.w3.org/2000/svg">
<path d="M46 0H7.33333C6.22875 0 5.33333 0.895417 5.33333 2V2.66667H2C0.895417 2.66667 0 3.56208 0 4.66667V27.3333C0 29.9107 2.08933 32 4.66667 32H44C46.2092 32 48 30.2092 48 28V2C48 0.895417 47.1046 0 46 0ZM4.66667 28C4.48986 28 4.32029 27.9298 4.19526 27.8047C4.07024 27.6797 4 27.5101 4 27.3333V6.66667H5.33333V27.3333C5.33333 27.5101 5.2631 27.6797 5.13807 27.8047C5.01305 27.9298 4.84348 28 4.66667 28ZM24.3333 26.6667H11.6667C11.1144 26.6667 10.6667 26.2189 10.6667 25.6667V25C10.6667 24.4478 11.1144 24 11.6667 24H24.3333C24.8856 24 25.3333 24.4478 25.3333 25V25.6667C25.3333 26.2189 24.8856 26.6667 24.3333 26.6667ZM41.6667 26.6667H29C28.4478 26.6667 28 26.2189 28 25.6667V25C28 24.4478 28.4478 24 29 24H41.6667C42.2189 24 42.6667 24.4478 42.6667 25V25.6667C42.6667 26.2189 42.2189 26.6667 41.6667 26.6667ZM24.3333 18.6667H11.6667C11.1144 18.6667 10.6667 18.2189 10.6667 17.6667V17C10.6667 16.4478 11.1144 16 11.6667 16H24.3333C24.8856 16 25.3333 16.4478 25.3333 17V17.6667C25.3333 18.2189 24.8856 18.6667 24.3333 18.6667ZM41.6667 18.6667H29C28.4478 18.6667 28 18.2189 28 17.6667V17C28 16.4478 28.4478 16 29 16H41.6667C42.2189 16 42.6667 16.4478 42.6667 17V17.6667C42.6667 18.2189 42.2189 18.6667 41.6667 18.6667ZM41.6667 10.6667H11.6667C11.1144 10.6667 10.6667 10.2189 10.6667 9.66667V6.33333C10.6667 5.78108 11.1144 5.33333 11.6667 5.33333H41.6667C42.2189 5.33333 42.6667 5.78108 42.6667 6.33333V9.66667C42.6667 10.2189 42.2189 10.6667 41.6667 10.6667Z" fill="black"/>
</svg>
