<svg width="48" height="36" viewBox="0 0 48 36" fill="none" xmlns="http://www.w3.org/2000/svg">
<path d="M46.1008 4.69336V1.6699L45.663 1.49753C45.512 1.44108 41.9607 0.0605469 37.2196 0.0605469C32.1475 0.0605469 27.7725 1.60736 24.2136 4.6598C20.6577 1.60736 16.2827 0.0605469 11.2075 0.0605469C6.46641 0.0605469 2.91515 1.44108 2.76718 1.49905L2.32937 1.6699V4.47064C0.893917 4.73912 0 5.21964 0 6.00525C0 10.0874 0 34.8623 0 34.8623H21.2557C21.9894 35.5198 23.0664 35.9377 24.267 35.9377C25.4675 35.9377 26.5429 35.5213 27.2813 34.8623H48C48 34.8623 48 7.43613 48 6.00525C47.9985 5.36608 47.2754 4.94963 46.1008 4.69336ZM23.9863 32.5878C22.2198 31.8572 16.1409 29.5476 10.0558 29.5476C7.65169 29.5476 5.52063 29.9168 3.70533 30.6444V2.62484C4.76247 2.27093 7.65169 1.43651 11.206 1.43651C15.8785 1.43651 19.8935 2.85061 23.1763 5.6071V22.3322L23.9863 21.4413V32.5878ZM44.7203 30.6536C42.7707 29.8695 40.5314 29.4759 38.0525 29.4759C31.972 29.4759 26.1814 31.8068 24.4393 32.5726V21.4413L25.2493 22.3322V5.6071C28.5291 2.85061 32.5456 1.43651 37.2181 1.43651C40.7632 1.43651 43.6601 2.27246 44.7203 2.62484V30.6536Z" fill="black"/>
<path d="M14.9022 7.1967C18.159 7.82214 20.3785 9.02267 20.4167 9.0425L20.9567 8.06926C20.7965 7.97773 18.3985 6.67805 14.9006 6.04346L14.9022 7.1967Z" fill="black"/>
<path d="M14.9022 10.3544C18.159 10.9783 20.3785 12.1803 20.4167 12.2017L20.9567 11.2269C20.7965 11.1354 18.3985 9.8357 14.9006 9.20264L14.9022 10.3544Z" fill="black"/>
<path d="M14.9022 13.3214C18.159 13.9468 20.3785 15.1474 20.4167 15.1687L20.9567 14.194C20.7965 14.1009 18.3985 12.8027 14.9006 12.1697L14.9022 13.3214Z" fill="black"/>
<path d="M14.9022 16.5736C18.159 17.199 20.3785 18.4011 20.4167 18.4209L20.9567 17.4477C20.7965 17.3562 18.3985 16.0549 14.9006 15.4219L14.9022 16.5736Z" fill="black"/>
<path d="M6.43134 18.7002L6.71812 19.7787C13.8954 17.8779 20.3526 21.4002 20.4167 21.4353L20.9567 20.4605C20.6821 20.3065 14.0525 16.682 6.43134 18.7002Z" fill="black"/>
<path d="M6.43134 21.7952L6.71812 22.8737C13.8954 20.97 20.3526 24.4922 20.4167 24.5288L20.9567 23.5556C20.6821 23.3985 14.0525 19.7771 6.43134 21.7952Z" fill="black"/>
<path d="M6.43134 24.8979L6.71812 25.9764C13.8954 24.0711 20.3526 27.5964 20.4167 27.63L20.9567 26.6568C20.6821 26.5012 14.0525 22.8782 6.43134 24.8979Z" fill="black"/>
<path d="M28.3384 9.12639C28.4055 9.09131 34.8613 5.56903 42.0355 7.4728L42.3223 6.3943C34.7011 4.3746 28.0699 7.99908 27.7938 8.15468L28.3384 9.12639Z" fill="black"/>
<path d="M27.7984 11.3107L28.3384 12.2839C28.4055 12.2488 34.8613 8.72504 42.0355 10.6303L42.3223 9.55031C34.7041 7.5306 28.0745 11.1551 27.7984 11.3107Z" fill="black"/>
<path d="M27.7984 14.2763L28.3384 15.2511C28.4055 15.2145 34.8613 11.6937 42.0355 13.5945L42.3223 12.5175C34.7041 10.4993 28.0745 14.1223 27.7984 14.2763Z" fill="black"/>
<path d="M27.7984 17.53L28.3384 18.5033C28.4055 18.4682 34.8613 14.9444 42.0355 16.8482L42.3223 15.7697C34.7041 13.7484 28.0745 17.3744 27.7984 17.53Z" fill="black"/>
<path d="M27.7984 20.5429L28.3384 21.5192C28.4055 21.4825 34.8613 17.9603 42.0355 19.8625L42.3223 18.784C34.7041 16.7658 28.0745 20.3873 27.7984 20.5429Z" fill="black"/>
<path d="M27.7984 23.638L28.3384 24.6112C28.4055 24.5761 34.8613 21.0538 42.0355 22.9561L42.3223 21.8791C34.7041 19.8594 28.0745 23.4824 27.7984 23.638Z" fill="black"/>
<path d="M27.7984 26.7407L28.3384 27.7124C28.4055 27.6804 34.8613 24.1535 42.0355 26.0588L42.3223 24.9803C34.7041 22.9606 28.0745 26.5866 27.7984 26.7407Z" fill="black"/>
<path d="M13.6956 16.3768V5.85576C13.6956 5.85576 11.9047 5.65135 10.0634 5.70016C8.22527 5.7505 6.43134 6.31034 6.43134 6.31034V16.8299C6.43134 16.8299 7.93086 16.386 9.86514 16.2456C11.7964 16.1053 13.6956 16.3768 13.6956 16.3768Z" fill="black"/>
</svg>
