<svg width="636" height="675" viewBox="0 0 636 675" fill="none" xmlns="http://www.w3.org/2000/svg">
<path d="M554.102 420.154C551.735 424.719 550.2 428.659 548.652 432.627C547.2 436.351 545.739 440.098 543.573 444.409C551.573 449.62 558.806 454.502 565.373 458.935C602.912 484.271 618.692 494.922 631.486 468.383C645.582 439.143 618.672 433.56 565.119 422.45L565.107 422.448C561.554 421.71 557.885 420.949 554.102 420.154Z" fill="#E5E5E5"/>
<path d="M365.36 582.662C360.412 582.928 356.384 583.642 352.356 584.356C348.328 585.07 344.3 585.784 339.352 586.05C339.266 592.529 339.146 598.656 339.033 604.429C338.03 655.552 337.571 678.962 366.204 673.501C397.002 667.626 387.764 642.824 367.511 588.441C366.807 586.551 366.089 584.624 365.36 582.662Z" fill="#E5E5E5"/>
<path fill-rule="evenodd" clip-rule="evenodd" d="M454.144 512.749C550.104 437.694 566.718 297.493 490.972 200.457C415.226 103.423 274.893 85.6121 179.026 160.88C83.1585 236.147 66.4852 376.18 142.232 473.215C217.977 570.25 358.138 587.838 454.144 512.749ZM189.041 173.692C221.258 148.049 260.355 132.543 301.369 129.142C342.383 125.741 383.465 134.598 419.396 154.59C455.328 174.581 484.49 204.805 503.179 241.423C521.867 278.041 529.238 319.401 524.358 360.252C519.478 401.103 502.565 439.601 475.768 470.859C448.97 502.117 413.497 524.724 373.852 535.81C334.208 546.896 292.18 545.96 253.106 533.122C214.031 520.283 179.674 496.121 154.394 463.704C120.645 420.665 105.343 365.991 111.836 311.641C118.33 257.292 146.089 207.692 189.041 173.692Z" fill="#E5E5E5"/>
<path d="M376.395 575.387L373.68 563.126L327.431 569.216L328.97 582.175L376.395 575.387Z" fill="#E5E5E5"/>
<path d="M131.818 500.388C128.9 495.792 126.077 492.342 123.224 488.855C120.728 485.803 118.207 482.722 115.581 478.822C107.51 483.029 100.052 486.771 93.2558 490.18C52.8345 510.459 35.832 518.988 52.7341 543.686C71.0363 570.429 88.3772 550.439 123.243 510.248C125.989 507.083 128.845 503.791 131.818 500.388Z" fill="#E5E5E5"/>
<path d="M143.575 506.77L153.078 498.536L124.749 460.838L114.588 468.224L143.575 506.77Z" fill="#E5E5E5"/>
<path d="M82.4167 248.66C84.6228 244.157 86.1032 240.18 87.5772 236.217C88.9727 232.467 90.364 228.73 92.3601 224.574C84.4679 219.521 77.3186 214.783 70.8161 210.473L70.8078 210.467L70.8005 210.462L70.7858 210.452C32.8643 185.317 16.9754 174.785 4.36119 201.597C-9.44611 230.943 17.3161 236.163 70.6183 246.559C74.373 247.292 78.2591 248.05 82.2725 248.844L82.4167 248.66Z" fill="#E5E5E5"/>
<path d="M82.8601 262.329L94.7706 266.236L112.828 223.271L101.043 218.05L82.8601 262.329Z" fill="#E5E5E5"/>
<path d="M274.741 91.5948C279.698 91.2796 283.768 90.5882 287.833 89.898C291.991 89.1914 296.145 88.4855 301.235 88.1861C301.358 78.4824 301.626 69.6341 301.868 61.6169C303.213 17.1444 303.785 -1.76474 274.665 0.730731C242.451 3.49238 251.981 29.4865 270.839 80.9226C272.1 84.3639 273.406 87.9251 274.741 91.5948Z" fill="#E5E5E5"/>
<path d="M263.785 98.8837L266.5 111.144L312.887 105.232L311.304 92.3076L263.785 98.8837Z" fill="#E5E5E5"/>
<path d="M505.11 178.549C508.06 182.72 510.824 185.954 513.563 189.158C516.278 192.334 518.968 195.482 521.79 199.484C529.855 194.976 537.305 190.966 544.086 187.318C583.772 165.96 600.475 156.971 582.934 132.797C563.74 106.343 546.522 127.553 512.508 169.453L512.502 169.46L512.496 169.467C510.119 172.396 507.658 175.426 505.11 178.549Z" fill="#E5E5E5"/>
<path d="M493.156 172.459L484.098 180.99L513.286 217.95L523.522 210.29L493.156 172.459Z" fill="#E5E5E5"/>
<path d="M553.794 406.383L541.849 402.431L523.381 445.143L534.942 450.537L553.794 406.383Z" fill="#E5E5E5"/>
<path fill-rule="evenodd" clip-rule="evenodd" d="M292.562 306.132C274.621 320.057 271.366 345.889 285.291 363.83C299.216 381.77 325.048 385.025 342.989 371.1C360.929 357.175 364.184 331.343 350.259 313.403C336.334 295.463 310.502 292.207 292.562 306.132ZM307.231 325.032C299.729 330.855 298.368 341.658 304.191 349.16C310.014 356.662 320.817 358.024 328.319 352.201C335.821 346.377 337.183 335.575 331.359 328.073C325.536 320.57 314.734 319.209 307.231 325.032ZM291.788 358.787C290.522 357.156 290.818 354.808 292.449 353.542C294.08 352.276 296.428 352.572 297.694 354.203C298.96 355.834 298.664 358.182 297.033 359.448C295.402 360.714 293.054 360.418 291.788 358.787ZM339.108 317.326C337.477 318.592 337.181 320.94 338.447 322.571C339.713 324.202 342.061 324.498 343.692 323.232C345.323 321.967 345.619 319.618 344.353 317.987C343.087 316.356 340.739 316.06 339.108 317.326ZM296.944 317.874C295.678 316.243 295.974 313.895 297.605 312.629C299.236 311.363 301.584 311.659 302.85 313.29C304.116 314.921 303.82 317.269 302.189 318.535C300.558 319.801 298.209 319.505 296.944 317.874ZM333.82 359.288C332.189 360.554 331.893 362.902 333.159 364.533C334.425 366.164 336.773 366.46 338.404 365.194C340.035 363.928 340.331 361.58 339.065 359.949C337.799 358.318 335.451 358.022 333.82 359.288Z" fill="#E5E5E5"/>
<path d="M357.682 533.84L333.321 537.745L333.73 497.026C333.771 492.886 333.479 488.75 332.856 484.658L328.71 457.437C327.411 448.911 325.384 440.512 322.652 432.331L310.669 396.456L335.03 392.55L335.013 423.821C335.006 436.597 336.012 449.354 338.024 461.97L340.179 475.493C341.645 484.691 343.904 493.744 346.931 502.553L357.682 533.84Z" fill="#E5E5E5"/>
<path d="M279.157 142.47L303.518 138.564L303.11 179.283C303.068 183.423 303.36 187.559 303.984 191.652L308.13 218.872C309.428 227.398 311.455 235.798 314.188 243.978L326.171 279.854L301.809 283.76L301.827 252.489C301.834 239.713 300.827 226.956 298.816 214.339L296.66 200.816C295.194 191.619 292.935 182.565 289.908 173.757L279.157 142.47Z" fill="#E5E5E5"/>
<path d="M169.74 471.5L154.612 452.01L190.522 432.808C194.173 430.856 197.66 428.613 200.95 426.1L222.833 409.388C229.687 404.153 236.08 398.341 241.943 392.015L267.652 364.271L282.78 383.761L255.344 398.768C244.135 404.899 233.431 411.91 223.331 419.734L212.506 428.121C205.144 433.825 198.288 440.155 192.017 447.041L169.74 471.5Z" fill="#E5E5E5"/>
<path d="M369.96 316.094L354.832 296.604L390.742 277.402C394.392 275.45 397.88 273.207 401.17 270.694L423.052 253.982C429.906 248.747 436.3 242.935 442.162 236.609L467.871 208.865L482.999 228.356L455.564 243.362C444.355 249.493 433.65 256.504 423.55 264.328L412.726 272.715C405.363 278.419 398.508 284.749 392.236 291.635L369.96 316.094Z" fill="#E5E5E5"/>
<path d="M508.568 399.084L499.365 421.976L464.675 400.648C461.149 398.48 457.453 396.6 453.624 395.025L428.158 384.556C420.182 381.276 411.938 378.686 403.519 376.813L366.598 368.602L375.8 345.71L402.593 361.835C413.54 368.423 424.992 374.132 436.842 378.908L449.542 384.027C458.181 387.509 467.104 390.237 476.213 392.18L508.568 399.084Z" fill="#E5E5E5"/>
<path d="M128.272 277.225L137.475 254.333L172.164 275.662C175.69 277.83 179.386 279.71 183.215 281.284L208.681 291.754C216.658 295.034 224.901 297.624 233.32 299.496L270.242 307.708L261.039 330.6L234.246 314.475C223.299 307.887 211.847 302.178 199.997 297.402L187.297 292.283C178.658 288.801 169.735 286.073 160.626 284.129L128.272 277.225Z" fill="#E5E5E5"/>
</svg>
