<svg width="835" height="903" viewBox="0 0 835 903" fill="none" xmlns="http://www.w3.org/2000/svg">
<path d="M694.402 639.41C689.777 644.5 686.44 649.067 683.079 653.665C679.924 657.981 676.749 662.325 672.471 667.155C681.025 676.636 688.701 685.428 695.67 693.411C735.509 739.044 752.254 758.226 777.898 728.306C806.151 695.341 773.278 678.891 707.858 646.157L707.843 646.15C703.503 643.978 699.02 641.735 694.402 639.41Z" fill="#E5E5E5"/>
<path d="M394.653 784.749C388.164 783.397 382.712 782.938 377.26 782.479C371.808 782.02 366.356 781.561 359.868 780.209C357.534 788.555 355.277 796.434 353.15 803.859C334.316 869.605 325.692 899.712 364.582 902.474C406.412 905.445 402.978 870.212 395.451 792.958C395.19 790.274 394.923 787.536 394.653 784.749Z" fill="#E5E5E5"/>
<path fill-rule="evenodd" clip-rule="evenodd" d="M533.414 724.824C683.217 660.714 752.791 485.163 688.155 333.734C623.52 182.305 448.209 111.139 298.454 175.557C148.698 239.974 79.1057 415.287 143.742 566.716C208.377 718.145 383.54 788.964 533.414 724.824ZM307.007 195.556C357.452 173.457 413.315 166.823 467.505 176.496C521.694 186.17 571.765 211.713 611.358 249.884C650.952 288.054 678.285 337.131 689.883 390.881C701.481 444.63 696.822 500.629 676.5 551.766C656.176 602.903 621.105 646.871 575.739 678.088C530.373 709.305 476.758 726.362 421.704 727.094C366.649 727.825 312.637 712.198 266.527 682.197C220.416 652.195 184.288 609.172 162.728 558.592C133.862 491.375 132.835 415.444 159.875 347.409C186.913 279.375 239.815 224.775 307.007 195.556Z" fill="#E5E5E5"/>
<path d="M411.414 779.13L412.11 762.349L350.232 754.356L347.775 771.638L411.414 779.13Z" fill="#E5E5E5"/>
<path d="M120.957 598.271C118.762 591.329 116.296 585.9 113.805 580.414C111.624 575.613 109.422 570.764 107.365 564.822C95.4877 567.492 84.5629 569.771 74.607 571.847C15.3946 584.196 -9.51193 589.391 3.86647 627.117C18.3528 667.969 47.6284 648.075 106.489 608.078C111.125 604.927 115.946 601.652 120.957 598.271Z" fill="#E5E5E5"/>
<path d="M133.968 610.555L149.078 603.171L125.386 544.718L109.717 550.781L133.968 610.555Z" fill="#E5E5E5"/>
<path d="M143.447 255.896C147.844 250.831 151.122 246.197 154.387 241.58C157.477 237.211 160.558 232.857 164.564 228.169C156.095 218.929 148.478 210.351 141.55 202.549L141.541 202.538L141.533 202.529L141.518 202.512C101.116 157.009 84.1881 137.942 58.6831 168.277C30.766 201.479 63.573 217.408 128.915 249.133C133.517 251.368 138.281 253.681 143.197 256.084L143.447 255.896Z" fill="#E5E5E5"/>
<path d="M139.331 273.718L153.388 282.856L191.471 233.506L178.028 222.714L139.331 273.718Z" fill="#E5E5E5"/>
<path d="M445.961 118.821C452.478 120.114 457.976 120.616 463.467 121.118C469.086 121.632 474.697 122.144 481.381 123.503C484.869 111 488.251 99.6534 491.314 89.3721C508.309 32.3403 515.535 8.09102 477.033 1.32744C434.44 -6.15313 437.843 30.7208 444.577 103.685C445.028 108.567 445.493 113.619 445.961 118.821Z" fill="#E5E5E5"/>
<path d="M429.296 124.485L428.6 141.267L490.597 149.537L492.984 132.285L429.296 124.485Z" fill="#E5E5E5"/>
<path d="M713.949 310.261C716.331 316.665 718.795 321.794 721.237 326.876C723.657 331.914 726.055 336.906 728.33 343.047C740.303 339.986 751.31 337.358 761.327 334.968C819.959 320.971 844.637 315.08 830.253 277.81C814.514 237.028 784.979 258.54 726.633 301.039L726.622 301.047L726.613 301.054C722.534 304.024 718.314 307.098 713.949 310.261Z" fill="#E5E5E5"/>
<path d="M700.583 298.287L685.947 306.209L711.001 364.002L726.862 357.612L700.583 298.287Z" fill="#E5E5E5"/>
<path d="M698.729 621.502L684.642 612.295L646.115 661.177L659.21 672.116L698.729 621.502Z" fill="#E5E5E5"/>
<path fill-rule="evenodd" clip-rule="evenodd" d="M395.403 402.285C367.433 414.132 354.363 446.41 366.211 474.38C378.058 502.35 410.337 515.42 438.307 503.573C466.277 491.725 479.346 459.447 467.499 431.477C455.651 403.507 423.373 390.437 395.403 402.285ZM407.884 431.75C396.188 436.705 390.722 450.203 395.676 461.899C400.631 473.596 414.129 479.061 425.826 474.107C437.522 469.153 442.988 455.654 438.033 443.958C433.079 432.261 419.581 426.796 407.884 431.75ZM376.34 470.09C375.263 467.547 376.451 464.613 378.994 463.536C381.536 462.459 384.471 463.647 385.548 466.19C386.625 468.732 385.437 471.667 382.894 472.744C380.351 473.821 377.417 472.633 376.34 470.09ZM451.737 432.723C449.194 433.8 448.006 436.735 449.083 439.277C450.16 441.82 453.094 443.008 455.637 441.931C458.18 440.854 459.368 437.92 458.291 435.377C457.214 432.834 454.279 431.646 451.737 432.723ZM397.04 418.967C395.963 416.425 397.151 413.49 399.693 412.413C402.236 411.336 405.171 412.524 406.248 415.067C407.325 417.61 406.136 420.544 403.594 421.621C401.051 422.698 398.117 421.51 397.04 418.967ZM430.506 485.157C427.963 486.234 426.775 489.168 427.852 491.711C428.929 494.253 431.864 495.442 434.406 494.365C436.949 493.288 438.137 490.353 437.06 487.81C435.983 485.268 433.049 484.08 430.506 485.157Z" fill="#E5E5E5"/>
<path d="M401.476 719L368.642 715.692L383.139 663.191C384.612 657.854 385.653 652.406 386.252 646.901L390.229 610.289C391.476 598.821 391.737 587.267 391.011 575.754L387.826 525.264L420.66 528.572L409.91 568.993C405.518 585.507 402.443 602.344 400.715 619.345L398.863 637.566C397.603 649.959 397.418 662.439 398.31 674.864L401.476 719Z" fill="#E5E5E5"/>
<path d="M434.217 186.106L467.051 189.414L452.554 241.915C451.08 247.252 450.039 252.7 449.441 258.205L445.463 294.817C444.217 306.285 443.956 317.839 444.682 329.352L447.867 379.842L415.033 376.534L425.783 336.113C430.175 319.599 433.249 302.762 434.977 285.761L436.829 267.54C438.089 255.147 438.274 242.667 437.383 230.242L434.217 186.106Z" fill="#E5E5E5"/>
<path d="M179.893 573.935L167.022 543.549L220.032 531.044C225.422 529.773 230.7 528.069 235.815 525.949L269.837 511.851C280.494 507.435 290.753 502.114 300.502 495.947L343.255 468.9L356.126 499.286L315.511 509.275C298.917 513.356 282.673 518.747 266.932 525.398L250.061 532.526C238.586 537.375 227.552 543.207 217.082 549.957L179.893 573.935Z" fill="#E5E5E5"/>
<path d="M492.044 441.714L479.173 411.328L532.184 398.823C537.573 397.551 542.851 395.848 547.966 393.728L581.988 379.63C592.645 375.214 602.904 369.893 612.653 363.725L655.407 336.678L668.278 367.065L627.662 377.053C611.068 381.134 594.824 386.525 579.083 393.176L562.212 400.305C550.737 405.153 539.703 410.985 529.233 417.736L492.044 441.714Z" fill="#E5E5E5"/>
<path d="M642.764 596.551L623.014 622.988L585.485 583.516C581.67 579.503 577.537 575.804 573.127 572.456L543.797 550.184C534.61 543.208 524.842 537.032 514.6 531.723L469.685 508.441L489.435 482.004L518.541 512.041C530.433 524.314 543.279 535.623 556.96 545.862L571.623 556.837C581.596 564.302 592.197 570.889 603.306 576.527L642.764 596.551Z" fill="#E5E5E5"/>
<path d="M192.928 308.555L212.678 282.118L250.208 321.59C254.023 325.603 258.156 329.302 262.565 332.65L291.896 354.922C301.083 361.898 310.851 368.074 321.093 373.383L366.007 396.665L346.257 423.102L317.151 393.065C305.26 380.792 292.413 369.483 278.732 359.244L264.069 348.269C254.096 340.804 243.496 334.217 232.387 328.579L192.928 308.555Z" fill="#E5E5E5"/>
</svg>
