<svg width="40" height="40" viewBox="0 0 40 40" fill="none" xmlns="http://www.w3.org/2000/svg">
<circle cx="20" cy="20" r="20" fill="#6B9EFF"/>
<path d="M29.4296 24.1327L25.0546 22.2577C24.8677 22.178 24.6599 22.1612 24.4627 22.2098C24.2654 22.2585 24.0893 22.3698 23.9608 22.5272L22.0233 24.8944C18.9825 23.4607 16.5353 21.0136 15.1017 17.9728L17.4689 16.0353C17.6266 15.907 17.7382 15.7309 17.7868 15.5336C17.8354 15.3362 17.8185 15.1284 17.7384 14.9415L15.8634 10.5665C15.7755 10.365 15.6202 10.2006 15.4241 10.1015C15.228 10.0024 15.0034 9.97477 14.7891 10.0235L10.7266 10.961C10.52 11.0087 10.3357 11.125 10.2037 11.291C10.0718 11.4569 9.99995 11.6627 10 11.8747C10 21.8944 18.1212 30 28.1253 30C28.3374 30.0001 28.5433 29.9284 28.7093 29.7964C28.8753 29.6644 28.9917 29.4801 29.0394 29.2734L29.9769 25.2108C30.0253 24.9955 29.9971 24.7701 29.8972 24.5733C29.7973 24.3765 29.632 24.2207 29.4296 24.1327Z" fill="#F5F5F5"/>
</svg>
