<svg width="27" height="28" viewBox="0 0 27 28" fill="none" xmlns="http://www.w3.org/2000/svg">
<circle cx="13.5" cy="14" r="13.5" fill="#6B9EFF"/>
<path d="M20.0664 18.9236L17.4374 16.2946C17.3187 16.1759 17.1579 16.11 16.9891 16.11H16.5593C17.2871 15.1792 17.7196 14.0084 17.7196 12.7348C17.7196 9.70496 15.2646 7.25 12.2348 7.25C9.20496 7.25 6.75 9.70496 6.75 12.7348C6.75 15.7646 9.20496 18.2196 12.2348 18.2196C13.5084 18.2196 14.6792 17.7871 15.61 17.0593V17.4891C15.61 17.6579 15.6759 17.8187 15.7946 17.9374L18.4236 20.5664C18.6715 20.8143 19.0723 20.8143 19.3175 20.5664L20.0638 19.8202C20.3116 19.5723 20.3116 19.1715 20.0664 18.9236ZM12.2348 16.11C10.3705 16.11 8.85953 14.6017 8.85953 12.7348C8.85953 10.8705 10.3678 9.35953 12.2348 9.35953C14.0991 9.35953 15.61 10.8678 15.61 12.7348C15.61 14.5991 14.1017 16.11 12.2348 16.11Z" fill="#F5F5F5"/>
</svg>
