<svg width="40" height="40" viewBox="0 0 40 40" fill="none" xmlns="http://www.w3.org/2000/svg">
<circle cx="20" cy="20" r="20" fill="#6B9EFF"/>
<path d="M29.728 27.2942L25.8332 23.3994C25.6574 23.2236 25.4191 23.126 25.1691 23.126H24.5323C25.6105 21.747 26.2512 20.0125 26.2512 18.1256C26.2512 13.637 22.6142 10 18.1256 10C13.637 10 10 13.637 10 18.1256C10 22.6142 13.637 26.2512 18.1256 26.2512C20.0125 26.2512 21.747 25.6105 23.126 24.5323V25.1691C23.126 25.4191 23.2236 25.6574 23.3994 25.8332L27.2942 29.728C27.6614 30.0952 28.2552 30.0952 28.6185 29.728L29.7241 28.6225C30.0913 28.2552 30.0913 27.6614 29.728 27.2942ZM18.1256 23.126C15.3637 23.126 13.1252 20.8914 13.1252 18.1256C13.1252 15.3637 15.3598 13.1252 18.1256 13.1252C20.8875 13.1252 23.126 15.3598 23.126 18.1256C23.126 20.8875 20.8914 23.126 18.1256 23.126Z" fill="#F5F5F5"/>
</svg>
