<svg width="57" height="57" viewBox="0 0 57 57" fill="none" xmlns="http://www.w3.org/2000/svg">
<circle cx="28.5" cy="28.5" r="28.5" fill="#6B9EFF"/>
<path fill-rule="evenodd" clip-rule="evenodd" d="M44.7825 21.3643C45.0302 20.5492 44.7825 19.9502 43.6039 19.9502H39.7065C38.7156 19.9502 38.2587 20.4676 38.0109 21.0382C38.0109 21.0382 36.029 25.8067 33.2213 28.9041C32.3129 29.8007 31.9 30.086 31.4045 30.086C31.1568 30.086 30.7981 29.8007 30.7981 28.9856V21.3643C30.7981 20.3861 30.5106 19.9502 29.6847 19.9502H23.5602C22.9409 19.9502 22.5685 20.4042 22.5685 20.8344C22.5685 21.7617 23.9723 21.9756 24.117 24.584V30.2491C24.117 31.4911 23.8897 31.7163 23.3942 31.7163C22.073 31.7163 18.8591 26.9265 16.953 21.4458C16.5794 20.3805 16.2047 19.9502 15.2087 19.9502H11.3113C10.1977 19.9502 9.97501 20.4676 9.97501 21.0382C9.97501 22.0571 11.2963 27.1109 16.1272 33.7948C19.3478 38.3595 23.8854 40.8338 28.0144 40.8338C30.4917 40.8338 30.7982 40.2842 30.7982 39.3376V35.8877C30.7982 34.7886 31.0329 34.5692 31.8174 34.5692C32.3954 34.5692 33.3864 34.8545 35.6987 37.0553C38.3412 39.6637 38.7769 40.8338 40.2633 40.8338H44.1607C45.2742 40.8338 45.831 40.2842 45.5098 39.1997C45.1583 38.1188 43.8967 36.5505 42.2225 34.6914C41.3141 33.6318 39.9516 32.4907 39.5386 31.92C38.9606 31.1865 39.1257 30.8604 39.5386 30.2083C39.5386 30.2083 44.287 23.6058 44.7825 21.3643Z" fill="white"/>
</svg>
