<svg width="45" height="40" viewBox="0 0 45 40" fill="none" xmlns="http://www.w3.org/2000/svg">
<path d="M13.6769 22.2609C14.5651 22.6883 15.539 22.9084 16.5249 22.9045C17.5109 22.9006 18.4831 22.6729 19.3678 22.2385C21.4809 23.2447 23.3917 22.736 24.8004 22.2385C26.8535 23.4167 29.2063 22.9454 30.5363 22.216C30.1017 23.7684 26.9172 24.7296 24.8041 23.196C23.7139 23.9067 21.2262 24.4865 19.3716 23.2147C18.0828 23.9628 15.1417 24.8157 13.6769 22.2684V22.2609Z" fill="#6493CE"/>
<path d="M21.1174 18.2323H23.3878V19.4031H21.1174V18.2323Z" fill="#48617A"/>
<path d="M30.8284 18.2285V19.0813C30.6074 21.8718 27.8499 22.8892 25.9092 21.6997L25.8455 21.6548C25.7631 21.6025 25.6807 21.5464 25.5982 21.4827C25.3376 21.301 25.1042 21.0831 24.9051 20.8357C24.6666 21.1573 24.3723 21.4334 24.0359 21.6511C24.0239 21.6586 24.0125 21.6703 24.0015 21.6816C23.9849 21.6986 23.9692 21.7147 23.9535 21.7147C23.2525 22.1551 22.4084 22.3087 21.5969 22.1436C20.7853 21.9785 20.0688 21.5073 19.5963 20.8282C17.7979 23.2333 13.9615 22.4067 13.6992 19.0813V18.2846H18.1126V19.4554H15.1154C15.3065 21.6548 18.6934 21.3593 18.9406 19.4554C19.0334 18.4843 19.0472 17.5074 18.9818 16.534H20.2294C20.2361 16.8866 20.2332 17.281 20.2304 17.6708C20.2252 18.3687 20.2202 19.0522 20.2706 19.4554C20.4879 21.1162 23.3578 21.5875 24.1071 19.4554C24.2928 18.4821 24.3582 17.4896 24.3019 16.5004H24.3768C24.5379 16.4779 24.6653 16.4779 24.8489 16.4779H25.5345C25.4691 17.4513 25.4828 18.4282 25.5758 19.3993C25.823 21.3182 29.2099 21.6137 29.401 19.3993H26.5087V18.2285H30.8284Z" fill="#48617A"/>
<path fill-rule="evenodd" clip-rule="evenodd" d="M25.9212 10.6341C27.1072 11.1228 28.1843 11.8416 29.0901 12.7488C30.039 13.6863 30.7922 14.8026 31.306 16.0328C31.8199 17.263 32.0841 18.5827 32.0836 19.9156C32.1061 25.4403 27.6963 29.9664 22.2601 29.9851C20.9745 29.9891 19.7009 29.7389 18.5126 29.2491C17.3243 28.7592 16.2448 28.0394 15.3365 27.1311C13.4344 25.2335 12.3623 22.6611 12.3545 19.9765C12.3468 17.2919 13.4041 14.7134 15.2953 12.8049C16.1937 11.8904 17.2648 11.1629 18.4468 10.6645C19.6287 10.1661 20.898 9.90683 22.181 9.9016C23.4639 9.89641 24.7352 10.1454 25.9212 10.6341ZM12.619 20.0139C12.6302 21.755 13.0996 23.4625 13.9803 24.9653C17.0075 24.9541 19.5635 24.9479 21.7219 24.9426C26.0388 24.9321 28.7654 24.9254 30.4913 24.8905C31.3637 23.3819 31.8229 21.6707 31.8229 19.9287C31.8229 18.1867 31.3637 16.4755 30.4913 14.9669C29.4989 14.9669 28.1678 14.9759 26.3753 14.988C23.5391 15.0071 19.5479 15.034 13.9166 15.0455C13.0553 16.5594 12.6078 18.2728 12.619 20.0139Z" fill="#48617A"/>
<path d="M13.1824 5.94489C13.4916 5.80212 13.732 5.65833 13.9741 5.51357C14.2014 5.37766 14.4301 5.24091 14.7185 5.10328C14.5115 4.50568 14.3313 3.95641 14.1677 3.45774C13.2324 0.60717 12.8392 -0.591108 11.0918 0.278011C9.16657 1.23558 10.348 2.62075 12.6991 5.37729L12.6996 5.37789C12.8556 5.56079 13.0167 5.74967 13.1824 5.94489Z" fill="#916854"/>
<path d="M29.6597 5.10713C29.9294 5.29415 30.1692 5.4204 30.409 5.54664C30.6488 5.67288 30.8885 5.79912 31.1583 5.98615C31.4259 5.65061 31.6811 5.33489 31.9215 5.03737C34.0504 2.40287 35.0253 1.19648 33.3051 0.319274C31.4549 -0.624201 30.9309 1.04888 29.7818 4.71734C29.7419 4.84483 29.7012 4.97482 29.6597 5.10713Z" fill="#916854"/>
<path fill-rule="evenodd" clip-rule="evenodd" d="M22.174 5.15946C14.104 5.18942 7.54006 11.8512 7.56256 20.0056C7.58501 28.1599 14.2052 34.7919 22.279 34.747C30.3528 34.7021 36.913 28.0515 36.8905 19.8971C36.868 11.7428 30.2479 5.12956 22.174 5.15946ZM22.2752 33.6697C19.5479 33.703 16.8721 32.9265 14.5877 31.4386C12.3034 29.9507 10.5133 27.8186 9.44507 25.313C8.37676 22.8074 8.07831 20.0414 8.58768 17.3661C9.09704 14.6909 10.3912 12.2271 12.3058 10.2876C14.2205 8.34814 16.6692 7.0205 19.341 6.47322C22.0129 5.92594 24.7875 6.18375 27.3123 7.21387C29.8372 8.24398 31.9984 10 33.5217 12.2589C35.045 14.5178 35.8615 17.1777 35.8677 19.9009C35.8857 23.5238 34.4657 27.0064 31.9184 29.5867C29.3711 32.1671 25.9039 33.6351 22.2752 33.6697Z" fill="#916854"/>
<path d="M28.7867 5.03958L28.4308 5.79143L31.0983 7.35123L31.5441 6.61059L28.7867 5.03958Z" fill="#916854"/>
<path d="M38.5391 18.8982C38.5051 19.2572 38.5127 19.5524 38.5203 19.8507C38.527 20.1118 38.5338 20.3755 38.5128 20.6862C39.106 20.7939 39.6483 20.901 40.1424 20.9986C43.0813 21.5792 44.3174 21.8235 44.4361 19.8446C44.5646 17.7017 42.8452 18.0434 39.3883 18.7305C39.116 18.7846 38.8329 18.8408 38.5391 18.8982Z" fill="#916854"/>
<path d="M38.183 18.0867L37.3513 18.1316L37.3026 21.2549L38.1343 21.2811L38.183 18.0867Z" fill="#916854"/>
<path d="M30.8999 34.0774C30.6015 34.2235 30.3625 34.3715 30.1244 34.519C29.8991 34.6585 29.6745 34.7976 29.4012 34.934C29.609 35.5189 29.7907 36.0573 29.9559 36.5469L29.9561 36.5476L29.9563 36.5481L29.9566 36.5492C30.9201 39.4048 31.3238 40.6013 33.0729 39.7106C34.9874 38.7357 33.799 37.3756 31.4319 34.6666C31.2652 34.4757 31.0927 34.2782 30.9149 34.0737L30.8999 34.0774Z" fill="#916854"/>
<path d="M31.4318 33.3442L30.9672 32.6559L28.2772 34.1708L28.6818 34.9227L31.4318 33.3442Z" fill="#916854"/>
<path d="M14.4561 34.4849C14.1839 34.3001 13.9428 34.171 13.7021 34.042C13.4558 33.9101 13.2098 33.7783 12.9312 33.5872C12.5306 34.09 12.1572 34.5422 11.8189 34.9519C9.94219 37.2244 9.14423 38.1907 10.7694 39.2429C12.5673 40.4068 13.1244 38.6595 14.2268 35.2019C14.3006 34.9706 14.3769 34.7312 14.4561 34.4849Z" fill="#916854"/>
<path d="M15.3254 34.5486L15.6813 33.7967L13.0138 32.222L12.5717 32.9626L15.3254 34.5486Z" fill="#916854"/>
<path d="M5.9328 20.5779C5.94785 20.2398 5.93456 19.9583 5.92137 19.6794C5.90831 19.4029 5.8954 19.1289 5.9103 18.8049C5.30516 18.7132 4.75242 18.6204 4.24942 18.5359C1.30519 18.0416 0.0660056 17.8336 0.00200787 19.8111C-0.0680203 21.975 1.69444 21.5644 5.17623 20.7534L5.17688 20.7532L5.17743 20.7531C5.4208 20.6964 5.67263 20.6378 5.9328 20.5779Z" fill="#916854"/>
<path d="M6.31112 21.3821L7.13162 21.3035L7.10542 18.184L6.25867 18.169L6.31112 21.3821Z" fill="#916854"/>
<path d="M12.6392 6.67798L13.1037 7.36998L15.805 5.88503L15.4191 5.13318L12.6392 6.67798Z" fill="#916854"/>
<path d="M9.31211 20.6337L9.27466 20.1437L11.3652 19.9791L11.5038 21.7522L9.41326 21.9167L9.36831 21.4192L11.0543 21.2883L10.9906 20.499L9.31211 20.6337Z" fill="#D24A43"/>
<path fill-rule="evenodd" clip-rule="evenodd" d="M11.8224 22.9978C11.9348 23.4092 11.8749 23.802 11.3766 23.9366C11.2791 23.9666 11.1763 23.9744 11.0754 23.9596C10.9746 23.9448 10.8783 23.9078 10.7937 23.8511C10.7089 23.7946 10.638 23.7198 10.5858 23.6324C10.5337 23.5449 10.5018 23.447 10.4924 23.3456L10.3687 22.893L9.67187 23.08L9.54077 22.605L11.5676 22.0739L11.8224 22.9978ZM10.7621 22.7845L10.8633 23.1586C10.9232 23.383 11.0356 23.4765 11.2379 23.4242C11.498 23.353 11.4431 23.1399 11.4144 23.0291L11.4103 23.0127L11.3091 22.6387L10.7621 22.7845Z" fill="#D24A43"/>
<path fill-rule="evenodd" clip-rule="evenodd" d="M11.5068 24.1382C11.3619 24.1568 11.2228 24.2067 11.0992 24.2844C10.9619 24.3351 10.8373 24.4152 10.7341 24.5189C10.6309 24.6225 10.5516 24.7474 10.5017 24.8849C10.4518 25.0223 10.4324 25.1689 10.445 25.3146C10.4576 25.4602 10.5019 25.6014 10.5747 25.7282C10.6299 25.8639 10.7146 25.9857 10.8224 26.0849C10.9303 26.1841 11.0587 26.2584 11.1987 26.3023C11.3386 26.3463 11.4865 26.3588 11.6319 26.3391C11.7773 26.3194 11.9164 26.2679 12.0396 26.1883C12.1781 26.1392 12.3041 26.06 12.4084 25.9566C12.5127 25.8531 12.5929 25.7279 12.643 25.5899C12.6931 25.4519 12.712 25.3045 12.6984 25.1583C12.6848 25.0122 12.6389 24.8708 12.5641 24.7444C12.5072 24.6101 12.4218 24.4897 12.3137 24.3916C12.2057 24.2935 12.0775 24.22 11.9382 24.1763C11.7988 24.1325 11.6516 24.1195 11.5068 24.1382ZM12.2007 24.924C12.4217 25.3766 11.9684 25.6235 11.8035 25.7058V25.7095C11.6462 25.7843 11.1629 25.9975 10.9418 25.5449C10.8219 25.2981 10.8482 25.0063 11.339 24.7631C11.7698 24.55 12.0508 24.621 12.2007 24.924Z" fill="#D24A43"/>
<path fill-rule="evenodd" clip-rule="evenodd" d="M12.2008 27.7968L12.1484 27.7333C11.6388 27.1086 11.9273 26.6448 12.1896 26.4353C12.4518 26.2258 12.9651 26.0388 13.4709 26.6635L13.5234 26.727L13.7519 26.54L14.0629 26.9141L13.8343 27.1011L13.883 27.1609C14.3963 27.7894 14.1003 28.2569 13.8456 28.4627C13.5908 28.6684 13.0738 28.8592 12.5605 28.2307L12.5118 28.1709L12.2833 28.3579L11.9723 27.9839L12.2008 27.7968ZM13.2424 27.0113L13.2161 26.9814C13.1838 26.921 13.1386 26.8684 13.0836 26.8273C13.0287 26.7863 12.9653 26.7578 12.8982 26.7438C12.8309 26.73 12.7615 26.7309 12.6948 26.7468C12.628 26.7626 12.5655 26.7929 12.5118 26.8355C12.3432 26.9702 12.2158 27.1909 12.5118 27.5537L12.538 27.5836L13.2424 27.0113ZM12.819 27.924C13.0363 28.1933 13.2686 28.2756 13.5234 28.0699C13.576 28.026 13.6184 27.9711 13.6476 27.909C13.6766 27.847 13.6917 27.7793 13.6917 27.7108C13.6917 27.6423 13.6766 27.5746 13.6476 27.5125C13.6184 27.4505 13.576 27.3956 13.5234 27.3517L13.4896 27.3106L12.7853 27.8791L12.819 27.924Z" fill="#D24A43"/>
<path d="M15.1297 30.3372C15.2356 30.2882 15.3302 30.2179 15.4077 30.1308L15.018 29.8278C14.9436 29.9089 14.8401 29.9575 14.7301 29.9631C14.6201 29.9687 14.5122 29.9309 14.4298 29.8578C14.1676 29.6483 14.205 29.3117 14.4523 29.0049C14.8907 28.4588 15.2091 28.6832 15.2953 28.7543C15.3425 28.7806 15.3835 28.8169 15.4154 28.8605C15.4473 28.9041 15.4694 28.9542 15.48 29.0071C15.4907 29.0601 15.4898 29.1147 15.4773 29.1673C15.4648 29.2199 15.4411 29.2691 15.4077 29.3117L15.7823 29.6146C15.9659 29.364 16.1083 28.8853 15.5276 28.4214L15.5247 28.4193C15.3693 28.3068 14.7139 27.8322 14.029 28.687C13.5157 29.3266 13.7442 29.8278 14.1638 30.1608C14.2454 30.244 14.3434 30.3097 14.4515 30.3536C14.5596 30.3975 14.6756 30.4187 14.7923 30.4158C14.909 30.413 15.0238 30.3863 15.1297 30.3372Z" fill="#D24A43"/>
<path fill-rule="evenodd" clip-rule="evenodd" d="M15.8236 30.041C15.8781 29.9061 15.9612 29.7846 16.0673 29.6848C16.1735 29.5851 16.2999 29.5095 16.4381 29.4633C16.5763 29.4171 16.7229 29.4013 16.8678 29.4171C17.0126 29.4329 17.1523 29.4799 17.2773 29.5548C17.4913 29.7136 17.6419 29.9433 17.702 30.2027C17.7621 30.4621 17.7278 30.7344 17.6053 30.971C17.4828 31.2075 17.28 31.3928 17.0333 31.4938C16.7865 31.5948 16.5118 31.6049 16.2582 31.5223C16.1231 31.4634 16.0026 31.3756 15.9052 31.2652C15.8077 31.1547 15.7358 31.0243 15.6943 30.883C15.6529 30.7418 15.643 30.5932 15.6653 30.4477C15.6877 30.3022 15.7417 30.1634 15.8236 30.041ZM17.2323 30.7892C17.3185 30.6246 17.5358 30.157 17.0862 29.9251C16.7865 29.768 16.5167 29.8802 16.2957 30.2992C16.0447 30.7854 16.1983 31.0473 16.4418 31.1632C16.8914 31.3839 17.1536 30.9276 17.2361 30.7705L17.2323 30.7892Z" fill="#D24A43"/>
<path fill-rule="evenodd" clip-rule="evenodd" d="M19.1054 30.8189C19.0223 30.9128 18.9587 31.0222 18.9183 31.1408L18.656 31.0735L18.8396 30.3029L18.36 30.1907L17.8805 32.2256L18.36 32.3415L18.5511 31.4738L18.8134 31.5373C18.7823 31.6675 18.779 31.8028 18.8035 31.9343C18.8281 32.0659 18.88 32.1909 18.9559 32.3012C19.0318 32.4115 19.13 32.5047 19.2442 32.5748C19.3584 32.6449 19.486 32.6903 19.6189 32.7081C19.8848 32.7269 20.1486 32.6508 20.3635 32.4933C20.5783 32.3359 20.7301 32.1073 20.7918 31.8484C20.8534 31.5895 20.821 31.3172 20.7002 31.08C20.5793 30.8429 20.3781 30.6563 20.1322 30.5536C20.0139 30.5117 19.8885 30.4938 19.7632 30.5007C19.6379 30.5077 19.5152 30.5393 19.4023 30.5939C19.2894 30.6486 19.1885 30.725 19.1054 30.8189ZM19.3679 31.5112C19.4128 31.3241 19.5514 30.8341 20.0422 30.9501H20.0385C20.5331 31.051 20.4319 31.571 20.3907 31.7543C20.3495 31.9376 20.2071 32.4276 19.7163 32.3116C19.2255 32.1956 19.3229 31.6982 19.3679 31.5112Z" fill="#D24A43"/>
<path d="M21.7021 32.1733C21.7021 32.3902 21.8407 32.5474 22.1966 32.5474C22.5526 32.5474 22.6237 32.3902 22.6237 32.2743C22.6237 32.0349 22.384 32.0199 22.2491 32.0199H21.9531V31.6459H22.2004C22.3427 31.6459 22.5451 31.6234 22.5451 31.414C22.5451 31.2045 22.2079 31.1634 22.1367 31.1634C22.0895 31.1568 22.0414 31.1607 21.9958 31.1745C21.9502 31.1884 21.9081 31.2119 21.8725 31.2436C21.8368 31.2752 21.8086 31.3142 21.7895 31.3578C21.7704 31.4015 21.7611 31.4487 21.762 31.4963H21.2825C21.3162 30.9277 21.6571 30.7482 22.2041 30.7482C22.6762 30.7482 23.0921 30.894 23.0921 31.3392C23.0964 31.4524 23.0574 31.563 22.9829 31.6485C22.9084 31.734 22.8041 31.7879 22.6912 31.7993C22.757 31.8025 22.8215 31.819 22.8809 31.8477C22.9402 31.8764 22.9931 31.9168 23.0364 31.9663C23.0798 32.0159 23.1127 32.0737 23.1332 32.1363C23.1537 32.1988 23.1614 32.2648 23.1557 32.3304C23.1557 32.8615 22.6387 32.9588 22.1816 32.9588C21.7246 32.9588 21.2562 32.8615 21.2225 32.1771L21.7021 32.1733Z" fill="#D24A43"/>
<path d="M25.1039 32.5997L24.6955 31.1558L25.6322 32.4463L25.9544 32.3528L26.0481 30.7706L26.4602 32.2069L26.936 32.0723L26.359 30.0599L25.6921 30.2507L25.606 31.7731L24.7293 30.5274L24.0511 30.722L24.6281 32.7343L25.1039 32.5997Z" fill="#D24A43"/>
<path fill-rule="evenodd" clip-rule="evenodd" d="M27.0183 30.894C26.9318 30.7751 26.8724 30.6386 26.8444 30.4943C26.8163 30.35 26.8203 30.2013 26.856 30.0586C26.8917 29.916 26.9583 29.783 27.0511 29.6688C27.1438 29.5546 27.2606 29.4621 27.393 29.3978C27.6487 29.2899 27.9353 29.2802 28.1977 29.3707C28.4601 29.4611 28.6797 29.6454 28.8141 29.8878C28.9485 30.1303 28.9884 30.4138 28.9259 30.6839C28.8635 30.9539 28.7031 31.1913 28.4757 31.3504C28.3526 31.4268 28.2144 31.4758 28.0705 31.494C27.9267 31.5121 27.7806 31.4991 27.6422 31.4558C27.5039 31.4125 27.3765 31.3399 27.2689 31.2429C27.1612 31.146 27.0758 31.0269 27.0183 30.894ZM28.4083 30.1272C28.3184 29.9664 28.0337 29.525 27.6065 29.7532C27.3105 29.9178 27.2506 30.2021 27.4829 30.621C27.7489 31.0998 28.0411 31.111 28.2847 30.995C28.7268 30.7519 28.4945 30.2843 28.4083 30.1272Z" fill="#D24A43"/>
<path fill-rule="evenodd" clip-rule="evenodd" d="M30.3228 28.1896C29.9894 27.8156 29.6072 27.9166 29.2813 28.1896L28.532 28.8068L29.8695 30.4115L30.2441 30.0935L29.7796 29.54L30.1542 29.2407C30.2428 29.1899 30.319 29.12 30.377 29.036C30.4351 28.952 30.4736 28.8561 30.4898 28.7554C30.506 28.6546 30.4994 28.5515 30.4705 28.4536C30.4416 28.3557 30.3911 28.2655 30.3228 28.1896ZM29.8283 28.9939L29.5323 29.2407L29.1726 28.7918L29.4686 28.545L29.4815 28.5354C29.5609 28.4756 29.741 28.34 29.9144 28.545C30.0456 28.7021 30.0081 28.8442 29.8283 28.9939Z" fill="#D24A43"/>
<path fill-rule="evenodd" clip-rule="evenodd" d="M31.6567 27.7108L31.9526 28.4888L31.578 28.9414L31.3045 28.0587C31.1902 28.1713 31.036 28.2344 30.8755 28.2344C30.7149 28.2344 30.5608 28.1713 30.4465 28.0587C30.3711 27.9995 30.3094 27.9248 30.2658 27.8396C30.2221 27.7543 30.1974 27.6607 30.1936 27.565C30.1896 27.4694 30.2065 27.374 30.2431 27.2856C30.2796 27.1971 30.335 27.1175 30.4053 27.0524L31.0984 26.252L32.7132 27.5911L32.3985 27.9652L31.8402 27.5013L31.6567 27.7108ZM30.7875 27.247C30.6226 27.4489 30.6975 27.5911 30.7875 27.6696C30.8774 27.7482 31.0385 27.8155 31.2258 27.5911L31.5105 27.2507L31.0984 26.8916L30.7875 27.247Z" fill="#D24A43"/>
<path d="M32.1324 24.419L31.8477 24.924L32.2673 25.9676L31.518 25.5375L31.2744 25.9676L33.1027 26.9925L33.3463 26.5623L32.4621 26.0723L33.7209 25.9265L33.9832 25.4028L32.5558 25.6197L32.1324 24.419Z" fill="#D24A43"/>
<path fill-rule="evenodd" clip-rule="evenodd" d="M33.1476 24.7484C33.005 24.7169 32.871 24.6549 32.7548 24.5667C32.6386 24.4784 32.543 24.366 32.4745 24.2373C32.4061 24.1085 32.3665 23.9664 32.3586 23.8208C32.3506 23.6753 32.3744 23.5297 32.4282 23.3943C32.5519 23.158 32.7558 22.9735 33.0033 22.8737C33.2508 22.7738 33.5259 22.7652 33.7792 22.8494C34.0325 22.9335 34.2476 23.105 34.3858 23.3329C34.5241 23.5609 34.5766 23.8306 34.5338 24.0938C34.4957 24.2342 34.4275 24.3648 34.334 24.4764C34.2404 24.588 34.1237 24.6781 33.9919 24.7403C33.8602 24.8025 33.7164 24.8355 33.5707 24.8369C33.4249 24.8383 33.2805 24.808 33.1476 24.7484ZM33.6459 23.2521C33.4698 23.1923 32.9752 23.0501 32.8141 23.5327C32.7092 23.8543 32.8591 24.1012 33.3124 24.2546C33.8332 24.4267 34.0617 24.2546 34.1442 23.9741C34.309 23.484 33.8182 23.297 33.6496 23.2409L33.6459 23.2521Z" fill="#D24A43"/>
<path fill-rule="evenodd" clip-rule="evenodd" d="M33.5785 20.5776C33.3462 20.5477 33.039 20.6113 32.9716 21.1537L32.8479 22.1935L34.931 22.4479L35.0284 21.4641C35.0734 21.0938 35.0434 20.6599 34.5414 20.5963C34.4142 20.5741 34.2834 20.6003 34.1746 20.6695C34.0657 20.7387 33.9868 20.846 33.9532 20.9704C33.944 20.8724 33.9021 20.7803 33.8341 20.7091C33.7661 20.6378 33.6761 20.5915 33.5785 20.5776ZM33.7771 21.3557L33.7209 21.8083L33.305 21.7559L33.3575 21.3258C33.3874 21.1088 33.5073 21.0863 33.5935 21.0863C33.6241 21.0902 33.6536 21.1004 33.6799 21.1165C33.7063 21.1326 33.7289 21.1541 33.7462 21.1796C33.7636 21.205 33.7753 21.2339 33.7807 21.2643C33.786 21.2947 33.7847 21.3258 33.7771 21.3557ZM34.6425 21.4043L34.5788 21.913L34.1068 21.8531L34.163 21.408C34.1817 21.2322 34.2454 21.0826 34.4402 21.105C34.4734 21.1108 34.5052 21.1233 34.5335 21.1416C34.5619 21.1599 34.5862 21.1838 34.6051 21.2117C34.624 21.2397 34.637 21.2711 34.6434 21.3042C34.6499 21.3373 34.6495 21.3713 34.6425 21.4043Z" fill="#D24A43"/>
<path d="M24.9615 7.33993L24.4707 7.26887L23.4517 8.49203L23.6427 7.15291L23.1519 7.08185L22.856 9.15412L23.3318 9.22143L24.3546 7.98707L24.1747 9.3561L24.6655 9.4122L24.9615 7.33993Z" fill="#D24A43"/>
<path d="M24.096 6.89858C23.9124 6.87238 23.8675 6.76391 23.8675 6.66295L23.5378 6.61804C23.5041 6.98834 23.9686 7.09681 24.066 7.11181C24.1635 7.12676 24.628 7.16041 24.7104 6.78637L24.3808 6.73776C24.3658 6.83872 24.2796 6.92478 24.096 6.89858Z" fill="#D24A43"/>
<path d="M21.5522 7.08937L22.0467 7.04822L22.2191 9.13544L21.732 9.17655L21.6196 7.81502L20.9003 9.24766L20.4057 9.28876L20.2334 7.20159L20.7279 7.16043L20.8403 8.50701L21.5522 7.08937Z" fill="#D24A43"/>
<path d="M19.7243 9.01522C19.7413 8.89786 19.7334 8.77819 19.7012 8.66403L19.2179 8.83236C19.2441 8.93948 19.2269 9.05253 19.1701 9.14706C19.1132 9.24159 19.0214 9.30996 18.9145 9.33732C18.5923 9.43834 18.3375 9.21766 18.2176 8.84361C18.0078 8.17402 18.375 8.0394 18.4799 8.0057C18.5281 7.98084 18.5813 7.96672 18.6355 7.96436C18.6899 7.96204 18.744 7.97149 18.7943 7.99213C18.8445 8.01278 18.8897 8.04408 18.9266 8.08389C18.9635 8.1237 18.9914 8.17106 19.0081 8.22267L19.4727 8.07681C19.379 7.78877 19.0568 7.40352 18.3487 7.6242C18.1577 7.68405 17.3971 7.96459 17.7306 9.01938C17.9778 9.80489 18.5173 9.89094 19.0306 9.73008C19.1476 9.70943 19.2589 9.66457 19.3574 9.59832C19.456 9.53213 19.5396 9.44602 19.6028 9.34556C19.6659 9.24515 19.7073 9.13261 19.7243 9.01522Z" fill="#D24A43"/>
<path d="M17.3073 9.47579C17.3604 9.57948 17.3915 9.6929 17.3987 9.8091C17.406 9.92525 17.3892 10.0417 17.3495 10.1512C17.3099 10.2606 17.248 10.3607 17.1679 10.4453C17.0878 10.5299 16.9912 10.5971 16.884 10.6428C16.4194 10.9122 15.8724 10.9421 15.4603 10.2314C14.9058 9.27381 15.5877 8.8362 15.76 8.73519C16.4044 8.36114 16.7978 8.67158 16.9664 8.92971L16.5468 9.17284C16.5192 9.12623 16.4818 9.08614 16.4371 9.0554C16.3925 9.02461 16.3417 9.00392 16.2883 8.99466C16.2348 8.9854 16.18 8.98786 16.1276 9.00184C16.0752 9.01582 16.0265 9.04095 15.9848 9.07558C15.8874 9.13169 15.5614 9.34487 15.9136 9.95085C16.1122 10.2912 16.4082 10.4484 16.7004 10.28C16.799 10.2296 16.8735 10.1423 16.9079 10.0372C16.9423 9.93214 16.9337 9.81771 16.884 9.71892L17.3073 9.47579Z" fill="#D24A43"/>
<path fill-rule="evenodd" clip-rule="evenodd" d="M13.0827 11.6823C13.1421 11.8157 13.2298 11.9344 13.3398 12.0306C13.4278 12.1469 13.5399 12.2428 13.6686 12.3115C13.7973 12.3803 13.9395 12.4203 14.0852 12.4289C14.2309 12.4374 14.3768 12.4142 14.5126 12.3609C14.6485 12.3077 14.7712 12.2256 14.8722 12.1203C14.9866 12.0286 15.0794 11.9128 15.1439 11.7812C15.2083 11.6495 15.2428 11.5053 15.245 11.3588C15.2471 11.2123 15.2168 11.0671 15.1563 10.9336C15.0957 10.8002 15.0064 10.6817 14.8946 10.5867C14.8079 10.4687 14.6962 10.3713 14.5674 10.3014C14.4386 10.2314 14.296 10.1907 14.1496 10.1822C14.0032 10.1736 13.8568 10.1973 13.7207 10.2517C13.5847 10.3062 13.4623 10.3899 13.3623 10.497C13.2495 10.5898 13.1583 10.706 13.0951 10.8374C13.0317 10.969 12.9978 11.1127 12.9957 11.2586C12.9936 11.4044 13.0233 11.5491 13.0827 11.6823ZM13.6358 10.7962C14.0067 10.452 14.3739 10.8149 14.5012 10.9495H14.505L14.5081 10.9532C14.6201 11.0842 14.9586 11.4802 14.5912 11.8211C14.3889 12.0081 14.0517 12.0193 13.7257 11.6677C13.3998 11.3161 13.3885 11.0281 13.6358 10.7962Z" fill="#D24A43"/>
<path fill-rule="evenodd" clip-rule="evenodd" d="M12.6241 12.2961C12.1932 12.0043 11.8561 12.2138 11.6163 12.5654L11.0618 13.3546L12.7927 14.5404L13.0737 14.1327L12.478 13.7249L12.744 13.3509C12.8152 13.2783 12.8693 13.1907 12.9023 13.0945C12.9354 12.9984 12.9466 12.8961 12.9351 12.795C12.9236 12.694 12.8897 12.5969 12.836 12.5105C12.7822 12.4242 12.7098 12.351 12.6241 12.2961ZM12.3581 13.1901L12.1408 13.508L11.68 13.1938L11.8973 12.8759C11.946 12.7824 12.0846 12.5766 12.3206 12.7375C12.4892 12.8497 12.4892 12.9955 12.3581 13.1901Z" fill="#D24A43"/>
<path d="M27.2994 9.55438C27.2522 9.66113 27.1836 9.75705 27.0977 9.83612C27.0118 9.91519 26.9105 9.97574 26.8001 10.014C26.6897 10.0523 26.5726 10.0674 26.4561 10.0585C26.3396 10.0495 26.2262 10.0168 26.123 9.96213C25.6247 9.77135 25.25 9.35615 25.546 8.60805C25.9394 7.57567 26.7112 7.8263 26.8985 7.89736C27.5916 8.16294 27.6028 8.64546 27.5054 8.9559L27.0521 8.78383C27.0711 8.73314 27.0787 8.67893 27.0747 8.62495C27.0706 8.57097 27.0549 8.51852 27.0285 8.47121C27.0021 8.42394 26.9658 8.38288 26.922 8.35098C26.8782 8.31904 26.828 8.29701 26.7749 8.28636C26.67 8.24521 26.299 8.12924 26.048 8.78012C25.9057 9.15417 25.9731 9.47957 26.2878 9.59928C26.3887 9.64363 26.5031 9.64655 26.6062 9.60734C26.7093 9.56813 26.7927 9.48998 26.8385 9.38981L27.2994 9.55438Z" fill="#D24A43"/>
<path d="M30.1167 9.71505L29.6296 9.3971L28.5431 9.74125L29.0227 8.99315L28.6068 8.72382L27.4641 10.4781L27.8763 10.7587L28.442 9.90582L28.5057 11.1664L29.0115 11.4955L28.8878 10.0592L30.1167 9.71505Z" fill="#D24A43"/>
<path d="M31.7241 11.2265L32.0725 11.5781L30.5739 13.0481L30.2255 12.6965L31.1996 11.7352L29.6373 12.1092L29.2888 11.7576L30.7875 10.2876L31.1359 10.6392L30.173 11.5893L31.7241 11.2265Z" fill="#D24A43"/>
<path d="M33.7209 13.9868L33.4549 13.5679H31.8476L33.024 12.846L32.7617 12.427L30.9784 13.5305L31.2406 13.9494H32.8442L31.679 14.6676L31.9375 15.0866L33.7209 13.9868Z" fill="#D24A43"/>
</svg>
