<svg width="41" height="40" viewBox="0 0 41 40" fill="none" xmlns="http://www.w3.org/2000/svg">
<path d="M19.9975 0.00412329C20.2783 -0.00168342 20.5592 -0.00531262 20.8407 0.0215434C21.0083 0.0367861 21.1781 0.0338827 21.3479 0.0454961C21.7376 0.0709005 22.1251 0.108644 22.5126 0.157275C22.8304 0.197922 23.1453 0.249457 23.461 0.298088C23.8274 0.355429 24.1881 0.435998 24.5494 0.515114C24.9021 0.592053 25.2497 0.690041 25.5965 0.790933C25.9448 0.892551 26.2895 1.00651 26.6327 1.12482C27.2227 1.32805 27.7974 1.56686 28.3648 1.82308C28.7857 2.01325 29.1964 2.22519 29.6006 2.44802C30.3005 2.83224 30.9765 3.25836 31.6251 3.72405C31.9756 3.97737 32.3232 4.23431 32.6562 4.50941C32.916 4.72353 33.1736 4.94056 33.4196 5.17065C33.7265 5.45808 34.0422 5.73535 34.3303 6.04165C34.7456 6.47747 35.145 6.92827 35.5276 7.39317C36.8979 9.0796 37.9848 10.9778 38.7458 13.0133C38.9156 13.4721 39.0651 13.9373 39.2044 14.407C39.4618 15.2762 39.6551 16.1631 39.7827 17.0606C39.8328 17.4047 39.8785 17.7487 39.9111 18.0935C39.9365 18.357 39.9532 18.6219 39.9699 18.8861C39.9815 19.0712 39.9663 19.2599 40.0098 19.4428V20.5809C39.9721 20.6114 39.9931 20.6535 39.991 20.6891C39.9692 21.1181 39.938 21.5456 39.8995 21.9738C39.8588 22.4146 39.8025 22.8538 39.7305 23.2905C39.6666 23.6875 39.5846 24.0817 39.4983 24.4751C39.3891 24.9704 39.2576 25.4606 39.1042 25.9442C38.835 26.8006 38.5102 27.6385 38.1319 28.4527C37.6774 29.4289 37.1445 30.3666 36.5384 31.2566C36.2231 31.7223 35.8861 32.1728 35.5283 32.6066C35.2047 32.9957 34.8752 33.3782 34.5276 33.7462C34.3266 33.9603 34.1271 34.1752 33.913 34.3748C33.5758 34.6929 33.2307 35.0027 32.8783 35.3039C32.2224 35.8572 31.5316 36.3678 30.8102 36.8325C30.3919 37.1006 29.9637 37.3532 29.5266 37.5895C28.8737 37.9454 28.2017 38.265 27.5137 38.5469C26.8892 38.8019 26.2517 39.0236 25.6038 39.2111C24.4198 39.5569 23.2061 39.7911 21.9785 39.9108C21.6498 39.9405 21.3218 39.9645 20.9916 39.9833C20.66 40.0029 20.3291 40.0022 19.9975 39.9964L19.9932 39.6785C19.9946 39.6357 19.9975 39.5928 19.9975 39.5508C19.9975 38.8815 19.999 38.2116 19.9953 37.5416C19.9953 37.4545 20.0178 37.4298 20.1056 37.4313C20.4539 37.4371 20.803 37.424 21.152 37.4001C21.4858 37.3776 21.8196 37.3449 22.1519 37.3057C22.5539 37.258 22.954 37.1958 23.3514 37.1192C23.9777 37.0009 24.5967 36.847 25.2054 36.6583C25.8077 36.4703 26.3991 36.2547 26.9803 36.0087C27.6519 35.7259 28.3046 35.4003 28.9344 35.0338C29.6401 34.6239 30.3177 34.1673 30.9626 33.6671C31.4067 33.3209 31.8406 32.963 32.2484 32.5762C33.2095 31.6767 34.0734 30.6788 34.8259 29.5988C35.4381 28.718 35.972 27.7854 36.4216 26.8115C36.6683 26.2751 36.8932 25.7315 37.087 25.1748C37.3888 24.3171 37.6294 23.439 37.8068 22.5472C37.8699 22.2141 37.9243 21.8809 37.9737 21.5456C38.0187 21.2393 38.055 20.9322 38.0833 20.6238C38.1072 20.3683 38.1174 20.1106 38.1348 19.8544C38.1595 19.4994 38.1711 19.1445 38.1674 18.7903C38.1609 18.1791 38.1312 17.5687 38.0637 16.9605C38.0252 16.6106 37.9875 16.2607 37.9352 15.9138C37.8276 15.2168 37.6788 14.5268 37.4897 13.8473C37.3365 13.2847 37.1556 12.7299 36.9476 12.1852C36.6206 11.33 36.2331 10.4993 35.7881 9.69916C35.0506 8.37777 34.1549 7.15124 33.1206 6.04673C32.8192 5.72556 32.506 5.41565 32.1817 5.11766C31.8374 4.79859 31.4811 4.49278 31.1135 4.20093C30.5566 3.7608 29.9747 3.3534 29.3706 2.98079C28.0069 2.13914 26.5358 1.48578 24.9971 1.03844C24.5153 0.899131 24.0283 0.778551 23.5372 0.676976C23.2941 0.626167 23.0466 0.597134 22.8036 0.549229C22.551 0.499146 22.2963 0.469386 22.0416 0.441804C21.7565 0.411319 21.4706 0.386641 21.1832 0.36922C20.7914 0.344542 20.3995 0.323493 20.007 0.32567C19.9837 0.218972 19.9997 0.111547 19.9975 0.00412329" fill="#22A53C"/>
<path d="M19.9976 0.00413263C20.0005 0.111557 19.9831 0.218981 20.007 0.325679C20.007 1.0341 20.0048 1.74252 20.0085 2.45021C20.0092 2.5482 19.9824 2.5736 19.8858 2.57215C19.6478 2.56852 19.4098 2.58812 19.1718 2.59756C18.8257 2.61207 18.4825 2.64038 18.1378 2.66869C17.7648 2.6999 17.3962 2.75797 17.0283 2.81749C16.6212 2.88281 16.2163 2.96701 15.815 3.06572C14.6972 3.33392 13.6083 3.71123 12.5642 4.19222C11.9668 4.46512 11.3845 4.76992 10.8197 5.10533C10.1906 5.484 9.58483 5.90018 9.00566 6.3516C8.50983 6.73783 8.03347 7.14844 7.57833 7.58189C7.12437 8.0176 6.69371 8.47697 6.28815 8.95809C5.88514 9.43257 5.50589 9.92675 5.15181 10.4388C4.49901 11.3814 3.93542 12.3828 3.46833 13.43C3.05439 14.3539 2.71751 15.3104 2.46115 16.2898C2.23971 17.1372 2.07558 17.9985 1.96989 18.868C1.90966 19.3688 1.85379 19.8718 1.84291 20.3741C1.82839 21.0607 1.82331 21.7488 1.87991 22.4355C1.90749 22.7665 1.93942 23.096 1.97425 23.4255C2.01416 23.8109 2.07221 24.1949 2.14332 24.5745C2.23983 25.0913 2.35738 25.6045 2.49961 26.1118C2.67594 26.7404 2.87694 27.3603 3.11277 27.97C3.67114 29.4141 4.40937 30.782 5.30999 32.0412C5.7459 32.6546 6.21919 33.2405 6.72716 33.7956C7.02104 34.1164 7.32073 34.4329 7.64364 34.7268C7.97598 35.0288 8.30832 35.3293 8.65445 35.616C8.99405 35.8983 9.34453 36.1676 9.70662 36.4202C10.6153 37.0591 11.5811 37.6127 12.5917 38.0737C13.1215 38.3132 13.6599 38.5302 14.2092 38.7211C14.7861 38.9215 15.3724 39.0906 15.9674 39.2278C16.3172 39.3076 16.6698 39.3787 17.0239 39.4383C17.7571 39.558 18.4965 39.6355 19.2386 39.6705C19.4896 39.6836 19.7414 39.6756 19.9932 39.6778L19.9969 39.9957C19.6609 40.0008 19.3264 40.0015 18.9904 39.9834C18.706 39.9674 18.4222 39.9485 18.1392 39.9267C17.8562 39.905 17.5747 39.8745 17.2953 39.8324C16.9412 39.7794 16.5878 39.7213 16.2359 39.6553C15.7613 39.5638 15.2901 39.4556 14.8231 39.3308C13.8238 39.0666 12.8473 38.7224 11.9031 38.3016C10.2249 37.5592 8.65756 36.5878 7.24599 35.4149C6.58995 34.8702 5.96856 34.285 5.38546 33.6627C4.97817 33.2275 4.591 32.7739 4.22517 32.3033C3.15397 30.9383 2.26848 29.4372 1.59184 27.8393C1.26389 27.0694 0.983987 26.2799 0.753727 25.4753C0.567844 24.8228 0.416699 24.1608 0.30093 23.4923C0.230026 23.0863 0.170259 22.6785 0.121698 22.2692C0.0854166 21.9608 0.0658245 21.6501 0.0433298 21.3402C0.00124289 20.7581 -0.00746474 20.1759 0.00559671 19.5931C0.0135787 19.2156 0.0172069 18.8368 0.0491349 18.4608C0.421386 14.1979 1.95175 10.409 4.69683 7.11953C5.2084 6.50839 5.75679 5.92906 6.33895 5.38478C6.99478 4.77142 7.69101 4.20278 8.42297 3.68269C10.3185 2.33345 12.4354 1.32629 14.678 0.706745C15.3854 0.512041 16.1032 0.356955 16.828 0.242208C17.2416 0.176157 17.6574 0.12317 18.0761 0.0912333C18.4164 0.0651031 18.756 0.0389729 19.0978 0.0208269C19.3982 0.00485847 19.6979 -0.00239993 19.9976 0.00413263" fill="#0068B2"/>
<path d="M10.2791 26.2018H10.4147C11.3436 26.2018 12.2724 26.2011 13.2012 26.204C13.2854 26.204 13.3173 26.1837 13.3362 26.0959C13.7817 23.9946 14.2301 21.894 14.6786 19.7934C14.7141 19.6279 14.7562 19.4624 14.7853 19.2955C14.7976 19.2258 14.8237 19.2091 14.8905 19.2091C15.7924 19.2113 16.6937 19.2127 17.5956 19.2084C17.698 19.2084 17.6834 19.2505 17.6697 19.3158C17.5354 19.9386 17.4026 20.5621 17.2698 21.1856C17.0507 22.2133 16.8286 23.2397 16.6153 24.2689C16.5427 24.6195 16.521 24.9752 16.6095 25.3286C16.7372 25.8375 17.0942 26.1184 17.5731 26.2693C17.9976 26.4036 18.4367 26.4305 18.8786 26.4457C19.713 26.474 20.5033 26.2802 21.2681 25.963C21.3167 25.9427 21.3523 25.9238 21.353 25.8578C21.3552 25.3236 21.3617 24.7901 21.3675 24.2559C21.3675 24.2413 21.3639 24.2268 21.3602 24.2036C21.1303 24.2983 20.8859 24.353 20.6375 24.3655C20.4902 24.372 20.3436 24.3655 20.1999 24.3292C19.9692 24.2696 19.8545 24.1346 19.8299 23.8966C19.7936 23.5482 19.8654 23.2106 19.9358 22.8746C20.184 21.6871 20.438 20.5011 20.6861 19.3136C20.7028 19.233 20.7297 19.2084 20.8124 19.2091C21.8994 19.212 22.9871 19.212 24.0748 19.2091C24.1743 19.2084 24.1866 19.2381 24.1692 19.3252C23.7345 21.4715 23.3086 23.6207 22.8674 25.7663C22.6323 26.9102 22.1505 27.9409 21.374 28.8243C21.3319 28.8729 21.3319 28.8969 21.3813 28.9404C21.9473 29.434 22.5111 29.929 23.0749 30.424C23.1148 30.4589 23.1402 30.485 23.1954 30.4313C24.2737 29.3788 25.106 28.1667 25.6023 26.7339C25.8236 26.0959 25.9397 25.4339 26.074 24.7756C26.3925 23.2281 26.7074 21.6791 27.0231 20.1316C27.079 19.8551 27.137 19.5793 27.1885 19.302C27.2016 19.2294 27.2285 19.2084 27.301 19.2091C27.719 19.2127 28.1369 19.2091 28.5549 19.2127C28.6275 19.2127 28.6616 19.1931 28.6899 19.1234C28.9308 18.5297 29.1753 17.9374 29.4228 17.3459C29.4591 17.2588 29.4562 17.2297 29.3488 17.2305C28.7951 17.2355 28.2414 17.2305 27.6885 17.2348C27.6029 17.2348 27.5702 17.2203 27.5913 17.1259C27.6696 16.7681 27.7393 16.4074 27.8184 16.0495C27.8611 15.8695 27.9618 15.7085 28.105 15.5914C28.2482 15.4743 28.4259 15.4075 28.6108 15.4013C28.8749 15.3941 29.1274 15.442 29.3618 15.5639C29.4424 15.606 29.4721 15.5799 29.512 15.5131C29.7261 15.1546 29.9452 14.7996 30.1578 14.4403C30.2065 14.3576 30.229 14.3373 30.3059 14.4207C31.9966 16.2549 33.6895 18.0862 35.3853 19.9168C35.4506 19.9879 35.4419 20.0242 35.381 20.0895C33.9122 21.6757 32.4445 23.2629 30.9778 24.851L24.7497 31.5912L20.1056 36.6191C20.0026 36.7301 20.0026 36.7301 19.8995 36.6191L14.027 30.2607L10.3349 26.2643L10.2791 26.2018" fill="#22A53C"/>
<path d="M14.2106 12.6265C14.1874 12.6475 14.1671 12.6635 14.1482 12.6823C14.0451 12.7869 13.9428 12.8928 13.8391 12.9966L12.1534 14.6922C12.115 14.7314 12.0765 14.7575 12.1324 14.8221C12.7564 15.5407 13.3768 16.2615 13.9958 16.9837C14.0473 17.0446 14.0742 17.0381 14.1264 16.9851C14.5596 16.5438 14.9957 16.1047 15.4311 15.6641C15.6488 15.4449 15.8643 15.2228 16.0864 15.0072C16.1604 14.9346 16.1829 14.8845 16.0958 14.8054C16.0189 14.7357 15.9579 14.6486 15.8904 14.5695L14.2781 12.6969C14.2585 12.6751 14.2367 12.6533 14.2106 12.6265V12.6265ZM29.2574 13.2891C29.0483 13.2683 28.8384 13.2562 28.6282 13.2529C28.0165 13.2354 27.4157 13.2935 26.8381 13.5054C25.828 13.8756 25.2054 14.6131 24.8738 15.6155C24.7196 16.1022 24.6172 16.6039 24.5683 17.1121C24.5567 17.2123 24.5262 17.2355 24.429 17.2355C23.3768 17.2312 22.3239 17.2312 21.271 17.2355C21.1622 17.2355 21.1462 17.2116 21.168 17.1063C21.3443 16.2557 21.5235 15.4064 21.7848 14.5579C21.5743 14.5869 21.377 14.6138 21.1789 14.6428C20.3995 14.7561 19.6195 14.8737 18.8387 14.9818C18.7255 14.9978 18.6776 15.045 18.645 15.1495C18.4454 15.781 18.3039 16.4255 18.1588 17.0693C18.1152 17.2631 18.161 17.2319 17.9534 17.2326C16.0813 17.2326 14.2077 17.2341 12.3355 17.2297C12.2296 17.2297 12.1919 17.2573 12.1701 17.3604C11.6919 19.6243 11.2101 21.8867 10.7312 24.1506C10.7152 24.2268 10.6876 24.2493 10.6107 24.2493C9.93007 24.2471 9.24869 24.2493 8.56805 24.2522C8.50056 24.2522 8.45557 24.2334 8.40913 24.1825C7.14603 22.8121 5.88052 21.4439 4.61261 20.0779C4.54222 20.0024 4.57342 19.9698 4.62494 19.9146C6.45209 17.9389 8.27852 15.9617 10.1049 13.9852L14.9232 8.7708L19.9061 3.37709C19.9373 3.34297 19.9692 3.31031 20.0041 3.27402L29.2574 13.2891" fill="#0068B2"/>
</svg>
