<svg width="88" height="87" viewBox="0 0 88 87" fill="none" xmlns="http://www.w3.org/2000/svg">
<path d="M44.4732 0.00896815C45.084 -0.00366145 45.6948 -0.0115549 46.3072 0.046857C46.6717 0.0800097 47.041 0.0736949 47.4104 0.0989541C48.2579 0.154209 49.1007 0.236301 49.9435 0.342074C50.6347 0.430481 51.3197 0.542569 52.0062 0.648342C52.8033 0.773059 53.5877 0.948295 54.3736 1.12037C55.1407 1.28772 55.8966 1.50084 56.6511 1.72028C57.4086 1.9413 58.1583 2.18915 58.9048 2.44648C60.1879 2.88852 61.4379 3.40791 62.6721 3.96519C63.5875 4.37881 64.4808 4.83979 65.3599 5.32445C66.8821 6.16013 68.3526 7.08693 69.7632 8.09981C70.5255 8.65077 71.2815 9.20963 72.0059 9.80796C72.5709 10.2737 73.1312 10.7457 73.6662 11.2462C74.3338 11.8713 75.0204 12.4744 75.647 13.1406C76.5504 14.0885 77.419 15.069 78.2511 16.0801C81.2315 19.7481 83.5956 23.8767 85.2507 28.304C85.62 29.3018 85.9451 30.3137 86.2481 31.3351C86.8081 33.2256 87.2285 35.1547 87.506 37.1068C87.6149 37.8551 87.7143 38.6035 87.7853 39.3533C87.8406 39.9264 87.8769 40.5026 87.9132 41.0773C87.9384 41.4798 87.9053 41.8903 88 42.2881V44.7635C87.9179 44.8298 87.9637 44.9214 87.9589 44.9988C87.9116 45.9318 87.8437 46.8616 87.7601 47.7931C87.6716 48.7517 87.549 49.7069 87.3924 50.6568C87.2535 51.5204 87.0751 52.3776 86.8873 53.2333C86.6498 54.3107 86.3639 55.3769 86.0303 56.4286C85.4447 58.2913 84.7383 60.1138 83.9155 61.8845C82.9269 64.0078 81.7678 66.0473 80.4496 67.9831C79.7639 68.9959 79.0308 69.9758 78.2527 70.9194C77.5488 71.7656 76.8322 72.5976 76.0763 73.398C75.6391 73.8637 75.2051 74.331 74.7395 74.7652C74.0059 75.457 73.2555 76.1308 72.4889 76.7859C71.0624 77.9895 69.5599 79.1 67.9908 80.1106C67.0809 80.6939 66.1496 81.2432 65.1989 81.7572C63.7789 82.5313 62.3173 83.2264 60.8208 83.8395C59.4626 84.3941 58.076 84.8763 56.6668 85.284C54.0917 86.0362 51.4519 86.5457 48.7819 86.8059C48.0669 86.8706 47.3535 86.9227 46.6354 86.9638C45.9142 87.0064 45.1945 87.0048 44.4732 86.9922L44.4637 86.3007C44.4669 86.2076 44.4732 86.1144 44.4732 86.0229C44.4732 84.5673 44.4764 83.1102 44.4685 81.653C44.4685 81.4636 44.5174 81.4099 44.7084 81.4131C45.4659 81.4257 46.2251 81.3973 46.9842 81.3452C47.7102 81.2962 48.4362 81.2252 49.1591 81.14C50.0333 81.0361 50.9035 80.9008 51.7679 80.7342C53.13 80.4769 54.4763 80.1422 55.8004 79.7318C57.1103 79.3229 58.3966 78.854 59.6608 78.3188C61.1214 77.7038 62.5411 76.9956 63.911 76.1986C65.4459 75.3069 66.9196 74.3138 68.3223 73.2259C69.2882 72.4729 70.232 71.6946 71.1189 70.8531C73.2092 68.8969 75.0882 66.7264 76.7249 64.3773C78.0564 62.4617 79.2177 60.4333 80.1955 58.3151C80.7321 57.1484 81.2214 55.966 81.6428 54.7551C82.2993 52.8897 82.8225 50.9799 83.2084 49.0402C83.3457 48.3156 83.4641 47.591 83.5714 46.8616C83.6692 46.1954 83.7482 45.5276 83.8097 44.8567C83.8618 44.301 83.8839 43.7405 83.9218 43.1833C83.9754 42.4113 84.0007 41.6393 83.9928 40.8689C83.9786 39.5396 83.9139 38.2119 83.7671 36.889C83.6834 36.1281 83.6014 35.3671 83.4878 34.6125C83.2535 33.0965 82.93 31.5957 82.5187 30.1179C82.1856 28.8941 81.7921 27.6876 81.3397 26.5027C80.6283 24.6428 79.7855 22.8359 78.8177 21.0957C77.2137 18.2216 75.2655 15.554 73.016 13.1516C72.3604 12.4531 71.6792 11.779 70.9737 11.1309C70.225 10.4369 69.45 9.7718 68.6505 9.13701C67.4393 8.17974 66.1735 7.29365 64.8596 6.48322C61.8937 4.65264 58.694 3.23156 55.3474 2.25862C54.2995 1.95561 53.2402 1.69335 52.172 1.47242C51.6432 1.36191 51.1051 1.29877 50.5763 1.19457C50.0271 1.08564 49.4731 1.02092 48.9192 0.960924C48.2989 0.894619 47.6771 0.840943 47.0521 0.803054C46.1998 0.749379 45.3476 0.703596 44.4937 0.708332C44.4432 0.476263 44.4779 0.242616 44.4732 0.00896815Z" fill="#22A53C"/>
<path d="M44.4733 0.00895871C44.4796 0.242606 44.4417 0.476254 44.4938 0.708323C44.4938 2.24913 44.4891 3.78995 44.4969 5.32918C44.4985 5.5423 44.4401 5.59756 44.2302 5.5944C43.7125 5.58651 43.1949 5.62913 42.6772 5.64965C41.9244 5.68123 41.1779 5.7428 40.4282 5.80437C39.617 5.87225 38.8152 5.99855 38.015 6.128C37.1296 6.27008 36.249 6.45321 35.3762 6.66792C32.9449 7.25124 30.5766 8.07189 28.3056 9.11806C27.0062 9.7116 25.7397 10.3746 24.5115 11.1041C23.1431 11.9277 21.8255 12.8329 20.5658 13.8147C19.4874 14.6548 18.4513 15.5478 17.4614 16.4906C16.474 17.4383 15.5373 18.4374 14.6552 19.4838C13.7787 20.5158 12.9538 21.5906 12.1837 22.7044C10.7639 24.7545 9.53806 26.9326 8.52213 29.2102C7.6218 31.2196 6.8891 33.3001 6.33151 35.4303C5.84988 37.2733 5.49291 39.1467 5.26303 41.0378C5.13204 42.1271 5.01051 43.2211 4.98684 44.3136C4.95527 45.8071 4.94422 47.3037 5.06733 48.7971C5.1273 49.517 5.19675 50.2337 5.2725 50.9505C5.35931 51.7887 5.48557 52.6239 5.64024 53.4495C5.85014 54.5736 6.10582 55.6897 6.41516 56.7932C6.79868 58.1604 7.23585 59.5086 7.74879 60.8347C8.96324 63.9756 10.5689 66.9507 12.5278 69.6896C13.4759 71.0237 14.5053 72.298 15.6101 73.5053C16.2493 74.2031 16.9011 74.8914 17.6034 75.5308C18.3263 76.1876 19.0491 76.8411 19.8019 77.4647C20.5406 78.0788 21.3029 78.6645 22.0904 79.2139C24.0668 80.6036 26.1675 81.8075 28.3656 82.8102C29.5177 83.3312 30.6888 83.8032 31.8835 84.2184C33.1382 84.6541 34.4134 85.022 35.7076 85.3203C36.4683 85.494 37.2354 85.6487 38.0056 85.7782C39.6002 86.0385 41.2085 86.2072 42.8224 86.2833C43.3685 86.3118 43.9161 86.2944 44.4638 86.2991L44.4717 86.9906C43.741 87.0017 43.0134 87.0032 42.2826 86.9638C41.664 86.929 41.0469 86.888 40.4313 86.8406C39.8158 86.7933 39.2035 86.727 38.5958 86.6354C37.8256 86.5202 37.057 86.3939 36.2916 86.2502C35.2593 86.0512 34.2344 85.8159 33.2187 85.5445C31.0452 84.9698 28.9214 84.2212 26.8678 83.3059C23.2176 81.6913 19.8087 79.5784 16.7385 77.0274C15.3116 75.8426 13.9601 74.5698 12.6919 73.2164C11.806 72.2698 10.964 71.2832 10.1683 70.2595C7.83841 67.2907 5.91245 64.0259 4.44076 60.5505C3.72749 58.8759 3.11869 57.1587 2.61787 55.4087C2.21358 53.9895 1.88484 52.5498 1.63304 51.0957C1.47882 50.2127 1.34883 49.3257 1.24321 48.4356C1.1643 47.7646 1.12168 47.089 1.07276 46.4149C0.981219 45.1487 0.96228 43.8826 0.990688 42.6149C1.00805 41.794 1.01594 40.9699 1.08538 40.1521C1.89503 30.8804 5.22358 22.6396 11.1941 15.485C12.3068 14.1557 13.4995 12.8957 14.7657 11.7119C16.1922 10.3778 17.7065 9.14102 19.2985 8.00981C23.4213 5.07522 28.0256 2.88465 32.9031 1.53714C34.4419 1.11366 36.0031 0.776347 37.5794 0.526772C38.479 0.383111 39.3834 0.267866 40.294 0.198403C41.0342 0.14157 41.7729 0.0847363 42.5162 0.0452688C43.1696 0.0105374 43.8214 -0.00524959 44.4733 0.00895871Z" fill="#0068B2"/>
<path d="M23.3356 56.989H23.6308C25.6509 56.989 27.6711 56.9874 29.6913 56.9937C29.8744 56.9937 29.9438 56.9495 29.9848 56.7585C30.9539 52.1882 31.9292 47.6194 32.9046 43.0506C32.9819 42.6907 33.0735 42.3307 33.1366 41.9676C33.1634 41.8161 33.2203 41.7798 33.3655 41.7798C35.3272 41.7845 37.2874 41.7877 39.2492 41.7782C39.4717 41.7782 39.4402 41.8698 39.4102 42.0118C39.1182 43.3664 38.8294 44.7225 38.5406 46.0786C38.0639 48.314 37.581 50.5463 37.117 52.7849C36.9592 53.5474 36.9118 54.321 37.1044 55.0898C37.3821 56.1965 38.1586 56.8074 39.2003 57.1358C40.1236 57.4279 41.0784 57.4863 42.0396 57.5194C43.8546 57.581 45.5733 57.1595 47.2368 56.4696C47.3425 56.4254 47.4198 56.3843 47.4214 56.2407C47.4262 55.0788 47.4404 53.9184 47.453 52.7565C47.453 52.7249 47.4451 52.6933 47.4372 52.6428C46.937 52.8487 46.4054 52.9678 45.8653 52.9949C45.5449 53.0091 45.2261 52.9949 44.9136 52.9159C44.4117 52.7865 44.1623 52.4928 44.1087 51.975C44.0297 51.2173 44.186 50.4832 44.3391 49.7522C44.8789 47.1695 45.4312 44.5899 45.971 42.0071C46.0073 41.8319 46.0657 41.7782 46.2456 41.7798C48.6099 41.7861 50.9757 41.7861 53.3415 41.7798C53.5577 41.7782 53.5845 41.8429 53.5466 42.0324C52.6013 46.7006 51.6748 51.3751 50.7152 56.0418C50.2039 58.5298 49.1559 60.7715 47.4672 62.6928C47.3757 62.7986 47.3757 62.8507 47.483 62.9454C48.714 64.0189 49.9403 65.0956 51.1666 66.1723C51.2534 66.2481 51.3087 66.3049 51.4286 66.1881C53.7739 63.8989 55.5842 61.2625 56.6637 58.1462C57.1451 56.7585 57.3976 55.3187 57.6896 53.8868C58.3824 50.521 59.0674 47.1521 59.7539 43.7863C59.8755 43.1848 60.0017 42.5849 60.1138 41.9819C60.1422 41.824 60.2006 41.7782 60.3584 41.7798C61.2675 41.7877 62.1766 41.7798 63.0856 41.7877C63.2435 41.7877 63.3176 41.745 63.3792 41.5935C63.9032 40.3021 64.435 39.0139 64.9732 37.7273C65.0521 37.5378 65.0458 37.4747 64.8122 37.4762C63.608 37.4873 62.4038 37.4762 61.2012 37.4857C61.015 37.4857 60.9439 37.4541 60.9897 37.2489C61.1602 36.4706 61.3117 35.686 61.4837 34.9077C61.5766 34.5162 61.7957 34.166 62.1071 33.9113C62.4185 33.6565 62.8051 33.5113 63.2072 33.4979C63.7816 33.4821 64.3309 33.5863 64.8407 33.8515C65.0158 33.9431 65.0806 33.8863 65.1674 33.741C65.6329 32.9612 66.1096 32.1892 66.572 31.4077C66.6777 31.2277 66.7267 31.1835 66.894 31.3651C70.5713 35.3545 74.2534 39.3375 77.9418 43.319C78.0838 43.4737 78.0649 43.5527 77.9323 43.6947C74.7377 47.1447 71.5454 50.5968 68.3554 54.051L54.8092 68.7108L44.7084 79.6465C44.4843 79.888 44.4843 79.888 44.2602 79.6465L31.4873 65.8171L23.4572 57.1247L23.3356 56.989Z" fill="#22A53C"/>
<path d="M31.8866 27.4626C31.8361 27.5083 31.7919 27.5431 31.7509 27.5841C31.5268 27.8114 31.3042 28.0419 31.0786 28.2677L27.4123 31.9555C27.3286 32.0408 27.245 32.0976 27.3665 32.2381C28.7238 33.801 30.0732 35.3687 31.4195 36.9395C31.5315 37.0721 31.5899 37.0579 31.7035 36.9426C32.6458 35.9828 33.5943 35.0277 34.5412 34.0694C35.0147 33.5926 35.4835 33.1096 35.9664 32.6407C36.1274 32.4828 36.1763 32.3739 35.9869 32.2018C35.8196 32.0503 35.6871 31.8608 35.5403 31.6887L32.0334 27.6157C31.9908 27.5683 31.9434 27.521 31.8866 27.4626ZM64.6134 28.9039C64.1586 28.8586 63.702 28.8322 63.245 28.825C61.9146 28.7871 60.6078 28.9134 59.3515 29.3744C57.1545 30.1795 55.8004 31.7835 55.0791 33.9636C54.7436 35.0223 54.5209 36.1134 54.4147 37.2189C54.3894 37.4368 54.3231 37.4873 54.1116 37.4873C51.8232 37.4778 49.5331 37.4778 47.2431 37.4873C47.0063 37.4873 46.9716 37.4352 47.019 37.2063C47.4025 35.3561 47.7923 33.509 48.3605 31.6635C47.9028 31.7266 47.4735 31.785 47.0426 31.8482C45.3476 32.0945 43.651 32.3502 41.9527 32.5854C41.7065 32.6202 41.6024 32.7228 41.5314 32.9501C41.0973 34.3236 40.7896 35.7255 40.4739 37.1258C40.3792 37.5473 40.4787 37.4794 40.0273 37.481C35.9554 37.481 31.8803 37.4841 27.8084 37.4747C27.578 37.4747 27.4959 37.5347 27.4486 37.7588C26.4085 42.6828 25.3605 47.6036 24.3189 52.5276C24.2842 52.6933 24.2242 52.7423 24.0569 52.7423C22.5765 52.7375 21.0945 52.7423 19.6141 52.7486C19.4673 52.7486 19.3695 52.7076 19.2684 52.597C16.5212 49.6164 13.7687 46.6405 11.011 43.6695C10.8579 43.5053 10.9258 43.4343 11.0378 43.3143C15.0119 39.0171 18.9844 34.7167 22.9568 30.4179L33.4365 19.0765L44.2744 7.34518C44.3422 7.27098 44.4117 7.19994 44.4874 7.121L64.6134 28.9039Z" fill="#0068B2"/>
</svg>
