<svg width="97" height="87" viewBox="0 0 97 87" fill="none" xmlns="http://www.w3.org/2000/svg">
<path d="M29.7472 48.4175C31.679 49.3471 33.7973 49.8258 35.9417 49.8173C38.0863 49.8089 40.2007 49.3135 42.125 48.3686C46.7209 50.5572 50.8768 49.4507 53.9408 48.3686C58.4063 50.9313 63.5236 49.9063 66.4165 48.3198C65.4712 51.6962 58.5448 53.7869 53.9489 50.4514C51.5776 51.9971 46.1669 53.2581 42.1332 50.492C39.3301 52.1192 32.9333 53.9741 29.7472 48.4338V48.4175Z" fill="#6493CE"/>
<path d="M45.9304 39.6552H50.8685V42.2016H45.9304V39.6552Z" fill="#48617A"/>
<path d="M67.0518 39.6471V41.5019C66.5711 47.5712 60.5736 49.784 56.3526 47.1969L56.214 47.0993C56.0348 46.9854 55.8555 46.8633 55.6762 46.725C55.1093 46.3298 54.6017 45.8559 54.1687 45.3176C53.65 46.0171 53.0097 46.6178 52.2782 47.0911C52.252 47.1074 52.2273 47.1329 52.2032 47.1576C52.1673 47.1944 52.1331 47.2294 52.0989 47.2294C50.5743 48.1873 48.7383 48.5215 46.9733 48.1623C45.2081 47.8032 43.6496 46.7785 42.622 45.3013C38.7105 50.5325 30.3662 48.7345 29.7958 41.5019V39.7691H39.395V42.3155H32.8761C33.2916 47.0993 40.6581 46.4566 41.1959 42.3155C41.3978 40.2035 41.4278 38.0785 41.2855 35.9616H43.9991C44.0137 36.7284 44.0073 37.5862 44.0011 38.4341C43.9899 39.952 43.9789 41.4386 44.0887 42.3155C44.5613 45.9278 50.8032 46.9529 52.433 42.3155C52.8369 40.1985 52.9792 38.04 52.8568 35.8884H53.0197C53.3701 35.8395 53.6472 35.8395 54.0464 35.8395H55.5377C55.3953 37.9565 55.4252 40.0814 55.6273 42.1934C56.1652 46.3671 63.5316 47.0097 63.9472 42.1934H57.6564V39.6471H67.0518Z" fill="#48617A"/>
<path fill-rule="evenodd" clip-rule="evenodd" d="M56.3788 23.1291C58.9583 24.1921 61.3009 25.7554 63.2709 27.7285C65.3348 29.7678 66.973 32.1956 68.0907 34.8712C69.2083 37.5469 69.783 40.4174 69.7818 43.3164C69.8307 55.3327 60.2396 65.1769 48.4159 65.2175C45.6197 65.2262 42.8494 64.6821 40.2649 63.6167C37.6803 62.5513 35.3326 60.9856 33.357 59.01C29.2198 54.8827 26.888 49.2879 26.8712 43.4488C26.8544 37.6097 29.1541 32.0015 33.2674 27.8506C35.2213 25.8615 37.551 24.2792 40.1218 23.1952C42.6926 22.1113 45.4531 21.5473 48.2437 21.5359C51.0341 21.5247 53.7992 22.0662 56.3788 23.1291ZM27.4463 43.5302C27.4707 47.3171 28.4917 51.0309 30.4071 54.2996C36.9914 54.2751 42.5507 54.2616 47.2453 54.2501C56.6344 54.2273 62.5648 54.2128 66.3186 54.1368C68.216 50.8556 69.2149 47.1337 69.2149 43.3449C69.2149 39.5561 68.216 35.8341 66.3186 32.553C64.1602 32.553 61.2649 32.5725 57.3664 32.5988C51.1976 32.6404 42.5169 32.6989 30.2686 32.7239C28.3953 36.0167 27.422 39.7433 27.4463 43.5302Z" fill="#48617A"/>
<path d="M28.6717 12.9301C29.3443 12.6196 29.8671 12.3069 30.3937 11.992C30.888 11.6964 31.3854 11.399 32.0127 11.0996C31.5625 9.79985 31.1705 8.60519 30.8147 7.52058C28.7804 1.32059 27.9254 -1.28566 24.1247 0.604674C19.9373 2.68739 22.5069 5.70014 27.6205 11.6956L27.6217 11.6969C27.9609 12.0947 28.3113 12.5055 28.6717 12.9301Z" fill="#916854"/>
<path d="M64.5098 11.108C65.0965 11.5148 65.618 11.7893 66.1395 12.0639C66.6611 12.3385 67.1825 12.6131 67.7692 13.0198C68.3514 12.29 68.9063 11.6034 69.4292 10.9562C74.0596 5.2262 76.18 2.60232 72.4385 0.694386C68.4143 -1.35767 67.2747 2.28128 64.7755 10.2602C64.6886 10.5375 64.6001 10.8202 64.5098 11.108Z" fill="#916854"/>
<path fill-rule="evenodd" clip-rule="evenodd" d="M48.2285 11.2219C30.6762 11.287 16.3996 25.7765 16.4485 43.5122C16.4973 61.2479 30.8962 75.6723 48.4567 75.5747C66.0172 75.4771 80.2857 61.012 80.2367 43.2762C80.1879 25.5406 65.789 11.1568 48.2285 11.2219ZM48.4486 73.2317C42.5166 73.3042 36.6968 71.6151 31.7283 68.3789C26.7597 65.1427 22.8664 60.5054 20.543 55.0558C18.2194 49.6062 17.5703 43.59 18.6781 37.7713C19.786 31.9527 22.6008 26.594 26.7651 22.3757C30.9294 18.1572 36.2554 15.2696 42.0667 14.0793C47.8781 12.889 53.9127 13.4497 59.4042 15.6902C64.8957 17.9307 69.5966 21.7501 72.9097 26.6632C76.2228 31.5763 77.9988 37.3615 78.0121 43.2844C78.0513 51.1643 74.9629 58.739 69.4225 64.3512C63.8821 69.9634 56.3409 73.1565 48.4486 73.2317Z" fill="#916854"/>
<path d="M62.6111 10.9611L61.837 12.5964L67.6389 15.9889L68.6086 14.378L62.6111 10.9611Z" fill="#916854"/>
<path d="M83.8224 41.1036C83.7485 41.8844 83.765 42.5265 83.7816 43.1754C83.7962 43.7432 83.8109 44.3167 83.7653 44.9925C85.0555 45.2267 86.2349 45.4597 87.3096 45.672C93.7017 46.9348 96.3904 47.4661 96.6484 43.162C96.9279 38.5012 93.1883 39.2445 85.6695 40.7388C85.0773 40.8565 84.4615 40.9788 83.8224 41.1036Z" fill="#916854"/>
<path d="M83.0481 39.3385L81.2391 39.4362L81.1332 46.2294L82.9421 46.2864L83.0481 39.3385Z" fill="#916854"/>
<path d="M67.2071 74.1184C66.5581 74.4361 66.0383 74.758 65.5204 75.0788C65.0303 75.3824 64.5419 75.6847 63.9475 75.9815C64.3994 77.2538 64.7945 78.4247 65.1538 79.4896L65.1543 79.491L65.1547 79.4923L65.1555 79.4947C67.2511 85.7055 68.1291 88.3079 71.9334 86.3706C76.0974 84.2503 73.5125 81.292 68.3643 75.3999C68.0017 74.9848 67.6263 74.5552 67.2397 74.1103L67.2071 74.1184Z" fill="#916854"/>
<path d="M68.3641 72.5236L67.3537 71.0267L61.5029 74.3216L62.3829 75.9569L68.3641 72.5236Z" fill="#916854"/>
<path d="M31.4419 75.0048C30.8499 74.6027 30.3256 74.3219 29.802 74.0414C29.2663 73.7544 28.7312 73.4679 28.1254 73.0522C27.2541 74.1458 26.442 75.1292 25.7062 76.0203C21.6243 80.9632 19.8887 83.0648 23.4236 85.3534C27.334 87.8849 28.5457 84.0844 30.9433 76.5642C31.1037 76.0611 31.2698 75.5404 31.4419 75.0048Z" fill="#916854"/>
<path d="M33.3329 75.1431L34.1069 73.5079L28.305 70.0828L27.3434 71.6937L33.3329 75.1431Z" fill="#916854"/>
<path d="M12.9038 44.7568C12.9366 44.0215 12.9077 43.4092 12.879 42.8026C12.8506 42.2012 12.8225 41.6053 12.8549 40.9006C11.5387 40.7011 10.3365 40.4994 9.24249 40.3156C2.83879 39.2405 0.143562 38.788 0.00436712 43.089C-0.147944 47.7955 3.68541 46.9026 11.2583 45.1385L11.2597 45.1382L11.2609 45.1379C11.7902 45.0147 12.338 44.8871 12.9038 44.7568Z" fill="#916854"/>
<path d="M13.7266 46.506L15.5112 46.3352L15.4542 39.5501L13.6125 39.5176L13.7266 46.506Z" fill="#916854"/>
<path d="M27.4901 14.5246L28.5005 16.0297L34.3758 12.7999L33.5364 11.1647L27.4901 14.5246Z" fill="#916854"/>
<path d="M20.2539 44.8783L20.1725 43.8125L24.7194 43.4546L25.0209 47.3109L20.4739 47.6688L20.3762 46.5868L24.0431 46.302L23.9046 44.5854L20.2539 44.8783Z" fill="#D24A43"/>
<path fill-rule="evenodd" clip-rule="evenodd" d="M25.7138 50.0201C25.9581 50.915 25.8278 51.7693 24.744 52.0622C24.5321 52.1272 24.3084 52.1442 24.0891 52.1121C23.8698 52.0799 23.6603 51.9993 23.4762 51.8762C23.2919 51.7532 23.1376 51.5905 23.0242 51.4003C22.9108 51.2101 22.8414 50.9971 22.8209 50.7767L22.552 49.7923L21.0363 50.199L20.7512 49.1659L25.1596 48.0106L25.7138 50.0201ZM23.4076 49.5563L23.6276 50.3699C23.758 50.858 24.0025 51.0614 24.4425 50.9476C25.0081 50.7928 24.8886 50.3292 24.8264 50.0882L24.8173 50.0526L24.5973 49.2391L23.4076 49.5563Z" fill="#D24A43"/>
<path fill-rule="evenodd" clip-rule="evenodd" d="M25.0273 52.5006C24.7121 52.5411 24.4097 52.6497 24.1407 52.8185C23.8421 52.9289 23.5711 53.103 23.3467 53.3285C23.1223 53.5541 22.9498 53.8257 22.8412 54.1247C22.7326 54.4235 22.6905 54.7425 22.718 55.0592C22.7454 55.376 22.8417 55.683 22.9999 55.9589C23.1202 56.2539 23.3042 56.5188 23.5388 56.7347C23.7734 56.9505 24.0528 57.112 24.3572 57.2076C24.6616 57.3032 24.9833 57.3305 25.2994 57.2876C25.6156 57.2448 25.9183 57.1327 26.1861 56.9595C26.4875 56.8527 26.7614 56.6806 26.9884 56.4556C27.2152 56.2305 27.3895 55.9582 27.4986 55.658C27.6076 55.3579 27.6487 55.0374 27.6191 54.7194C27.5894 54.4015 27.4896 54.094 27.3269 53.8192C27.2032 53.527 27.0175 53.2652 26.7824 53.0518C26.5474 52.8384 26.2687 52.6786 25.9656 52.5834C25.6625 52.4883 25.3423 52.46 25.0273 52.5006ZM26.5365 54.2097C27.0173 55.1941 26.0312 55.731 25.6727 55.91V55.9182C25.3305 56.0809 24.2793 56.5446 23.7985 55.5602C23.5377 55.0233 23.5948 54.3887 24.6623 53.8598C25.5994 53.3962 26.2106 53.5507 26.5365 54.2097Z" fill="#D24A43"/>
<path fill-rule="evenodd" clip-rule="evenodd" d="M26.5367 60.4581L26.4226 60.3199C25.3144 58.9612 25.9418 57.9524 26.5122 57.4968C27.0826 57.0412 28.1991 56.6344 29.2992 57.9931L29.4133 58.1313L29.9103 57.7245L30.5867 58.5381L30.0896 58.9449L30.1955 59.0751C31.3118 60.4419 30.6681 61.4588 30.114 61.9063C29.5599 62.3538 28.4354 62.7687 27.319 61.4019L27.213 61.2717L26.716 61.6784L26.0396 60.8649L26.5367 60.4581ZM28.8021 58.7496L28.745 58.6846C28.6747 58.5531 28.5763 58.4387 28.4568 58.3494C28.3373 58.2601 28.1996 58.1982 28.0535 58.1679C27.9073 58.1377 27.7562 58.1398 27.611 58.1742C27.4659 58.2086 27.3299 58.2746 27.213 58.3672C26.8463 58.6601 26.5693 59.1402 27.213 59.9293L27.2701 59.9944L28.8021 58.7496ZM27.8813 60.7347C28.3539 61.3205 28.8591 61.4995 29.4133 61.0521C29.5278 60.9566 29.6201 60.8372 29.6834 60.7022C29.7466 60.5673 29.7795 60.4201 29.7795 60.271C29.7795 60.122 29.7466 59.9748 29.6834 59.8398C29.6201 59.7049 29.5278 59.5855 29.4133 59.49L29.3399 59.4005L27.8079 60.6371L27.8813 60.7347Z" fill="#D24A43"/>
<path d="M32.9072 65.9835C33.1375 65.8768 33.3433 65.724 33.5118 65.5345L32.6643 64.8755C32.5024 65.0519 32.2774 65.1576 32.038 65.1698C31.7987 65.182 31.5641 65.0996 31.385 64.9406C30.8146 64.485 30.896 63.7528 31.4339 63.0857C32.3873 61.8978 33.08 62.386 33.2673 62.5406C33.3701 62.5978 33.4592 62.6767 33.5286 62.7715C33.598 62.8665 33.646 62.9753 33.6692 63.0905C33.6924 63.2057 33.6904 63.3245 33.6632 63.4389C33.6361 63.5532 33.5844 63.6603 33.5118 63.7528L34.3267 64.4118C34.726 63.8667 35.0356 62.8254 33.7726 61.8165L33.7662 61.8119C33.4283 61.5672 32.0029 60.5349 30.5131 62.3941C29.3967 63.7853 29.8938 64.8755 30.8064 65.5996C30.9839 65.7808 31.1969 65.9235 31.4321 66.019C31.6672 66.1144 31.9195 66.1606 32.1734 66.1544C32.4271 66.1483 32.6769 66.0901 32.9072 65.9835Z" fill="#D24A43"/>
<path fill-rule="evenodd" clip-rule="evenodd" d="M34.4164 65.3393C34.5349 65.0458 34.7158 64.7814 34.9465 64.5645C35.1773 64.3476 35.4524 64.1832 35.7529 64.0826C36.0535 63.9821 36.3723 63.9477 36.6874 63.9822C37.0025 64.0165 37.3064 64.1187 37.5781 64.2816C38.0437 64.6271 38.3711 65.1266 38.5018 65.6909C38.6326 66.2551 38.558 66.8474 38.2916 67.3619C38.0252 67.8763 37.5842 68.2793 37.0474 68.499C36.5106 68.7187 35.9131 68.7407 35.3617 68.561C35.0678 68.4329 34.8057 68.242 34.5938 68.0017C34.3819 67.7615 34.2253 67.4778 34.1352 67.1706C34.0451 66.8634 34.0235 66.5402 34.0722 66.2238C34.1207 65.9073 34.2382 65.6055 34.4164 65.3393ZM37.4803 66.9665C37.6677 66.6084 38.1404 65.5915 37.1625 65.0871C36.5106 64.7454 35.9239 64.9895 35.4431 65.9007C34.8972 66.9583 35.2313 67.5278 35.7609 67.78C36.7388 68.26 37.3092 67.2674 37.4885 66.9258L37.4803 66.9665Z" fill="#D24A43"/>
<path fill-rule="evenodd" clip-rule="evenodd" d="M41.5543 67.0312C41.3737 67.2354 41.2353 67.4733 41.1474 67.7313L40.577 67.5849L40.9762 65.9089L39.9332 65.6649L38.8902 70.0907L39.9332 70.3428L40.3489 68.4554L40.9193 68.5937C40.8517 68.8769 40.8444 69.171 40.8978 69.4572C40.9512 69.7434 41.064 70.0152 41.2292 70.2551C41.3942 70.4951 41.6079 70.6979 41.8563 70.8503C42.1047 71.0027 42.3823 71.1014 42.6712 71.1402C43.2495 71.1811 43.8234 71.0155 44.2907 70.673C44.758 70.3306 45.0881 69.8334 45.2223 69.2703C45.3564 68.7073 45.2858 68.115 45.023 67.5991C44.7602 67.0833 44.3224 66.6774 43.7877 66.4541C43.5304 66.3631 43.2575 66.324 42.9851 66.3391C42.7126 66.3542 42.4458 66.4231 42.2002 66.5419C41.9546 66.6607 41.735 66.827 41.5543 67.0312ZM42.1253 68.5368C42.2231 68.13 42.5245 67.0642 43.592 67.3165H43.5839C44.6595 67.5361 44.4395 68.6669 44.3499 69.0656C44.2602 69.4642 43.9506 70.53 42.8831 70.2778C41.8156 70.0256 42.0274 68.9436 42.1253 68.5368Z" fill="#D24A43"/>
<path d="M47.2018 69.9769C47.2018 70.4488 47.5034 70.7905 48.2775 70.7905C49.0517 70.7905 49.2064 70.4488 49.2064 70.1966C49.2064 69.6759 48.685 69.6434 48.3916 69.6434H47.7479V68.8298H48.2856C48.5953 68.8298 49.0354 68.781 49.0354 68.3255C49.0354 67.8698 48.302 67.7803 48.1471 67.7803C48.0444 67.7661 47.9398 67.7745 47.8406 67.8046C47.7414 67.8347 47.6499 67.8859 47.5725 67.9547C47.4949 68.0236 47.4334 68.1084 47.3919 68.2032C47.3505 68.2982 47.3301 68.4009 47.3322 68.5044H46.2892C46.3625 67.2677 47.1041 66.8773 48.2938 66.8773C49.3205 66.8773 50.2251 67.1945 50.2251 68.1626C50.2346 68.4089 50.1497 68.6496 49.9877 68.8355C49.8257 69.0214 49.5987 69.1387 49.3531 69.1634C49.4963 69.1705 49.6366 69.2064 49.7657 69.2688C49.8946 69.3312 50.0097 69.419 50.1041 69.5268C50.1983 69.6346 50.2699 69.7604 50.3145 69.8964C50.3591 70.0324 50.3758 70.176 50.3635 70.3187C50.3635 71.4739 49.2391 71.6854 48.2449 71.6854C47.2508 71.6854 46.2321 71.4739 46.1588 69.9851L47.2018 69.9769Z" fill="#D24A43"/>
<path d="M54.601 70.9044L53.7129 67.7639L55.75 70.5708L56.4508 70.3674L56.6545 66.926L57.5509 70.05L58.5857 69.7572L57.3309 65.3802L55.8804 65.7952L55.693 69.1064L53.7862 66.3972L52.3113 66.8203L53.5662 71.1972L54.601 70.9044Z" fill="#D24A43"/>
<path fill-rule="evenodd" clip-rule="evenodd" d="M58.7648 67.1945C58.5766 66.9358 58.4475 66.6391 58.3864 66.3251C58.3254 66.0113 58.3341 65.6878 58.4118 65.3775C58.4894 65.0673 58.6342 64.7779 58.836 64.5295C59.0378 64.2812 59.2916 64.0801 59.5797 63.9402C60.1358 63.7055 60.7592 63.6845 61.3299 63.8812C61.9006 64.078 62.3782 64.4787 62.6706 65.006C62.963 65.5334 63.0497 66.1501 62.9138 66.7375C62.7779 67.3248 62.4292 67.8412 61.9347 68.187C61.6668 68.3533 61.3662 68.4598 61.0534 68.4994C60.7404 68.5389 60.4227 68.5106 60.1218 68.4164C59.8209 68.3222 59.5438 68.1643 59.3097 67.9533C59.0755 67.7425 58.8897 67.4836 58.7648 67.1945ZM61.788 65.5268C61.5924 65.1769 60.9731 64.2169 60.0442 64.7132C59.4004 65.0711 59.2701 65.6895 59.7752 66.6006C60.3538 67.642 60.9894 67.6664 61.519 67.4141C62.4806 66.8853 61.9755 65.8684 61.788 65.5268Z" fill="#D24A43"/>
<path fill-rule="evenodd" clip-rule="evenodd" d="M65.9521 61.3125C65.2269 60.4988 64.3957 60.7185 63.6868 61.3125L62.0571 62.6548L64.9661 66.145L65.781 65.4534L64.7706 64.2494L65.5855 63.5986C65.7782 63.488 65.9438 63.3359 66.0701 63.1532C66.1963 62.9706 66.2801 62.762 66.3154 62.5429C66.3505 62.3237 66.3361 62.0994 66.2733 61.8866C66.2104 61.6737 66.1007 61.4775 65.9521 61.3125ZM64.8765 63.0616L64.2327 63.5986L63.4505 62.6222L64.0942 62.0853L64.1222 62.0644C64.295 61.9344 64.6866 61.6395 65.0639 62.0853C65.3492 62.427 65.2676 62.7362 64.8765 63.0616Z" fill="#D24A43"/>
<path fill-rule="evenodd" clip-rule="evenodd" d="M68.8531 60.2709L69.4968 61.9632L68.6819 62.9476L68.087 61.0276C67.8384 61.2725 67.5033 61.4098 67.1541 61.4098C66.8048 61.4098 66.4696 61.2725 66.221 61.0276C66.057 60.8989 65.9229 60.7364 65.8279 60.551C65.7329 60.3657 65.6793 60.162 65.6708 59.954C65.6623 59.7459 65.699 59.5385 65.7786 59.3461C65.858 59.1536 65.9784 58.9806 66.1314 58.839L67.6389 57.0981L71.151 60.0107L70.4665 60.8242L69.2523 59.8153L68.8531 60.2709ZM66.9626 59.2621C66.604 59.7014 66.7669 60.0106 66.9626 60.1814C67.1581 60.3523 67.5085 60.4988 67.916 60.0107L68.5352 59.2703L67.6389 58.4893L66.9626 59.2621Z" fill="#D24A43"/>
<path d="M69.8878 53.1113L69.2686 54.2096L70.1812 56.4795L68.5514 55.5439L68.0217 56.4795L71.9983 58.7087L72.528 57.7731L70.6049 56.7073L73.3429 56.39L73.9133 55.251L70.8087 55.7229L69.8878 53.1113Z" fill="#D24A43"/>
<path fill-rule="evenodd" clip-rule="evenodd" d="M72.0962 53.8277C71.7861 53.7593 71.4946 53.6245 71.2419 53.4326C70.989 53.2406 70.7811 52.9961 70.6323 52.7161C70.4835 52.436 70.3974 52.127 70.3801 51.8103C70.3626 51.4938 70.4144 51.1772 70.5316 50.8826C70.8006 50.3688 71.244 49.9674 71.7823 49.7503C72.3207 49.5331 72.919 49.5143 73.47 49.6974C74.0209 49.8803 74.4886 50.2533 74.7894 50.7492C75.09 51.2451 75.2042 51.8317 75.1112 52.404C75.0283 52.7095 74.88 52.9934 74.6766 53.2363C74.4731 53.479 74.2193 53.6749 73.9326 53.8102C73.6461 53.9455 73.3334 54.0172 73.0164 54.0202C72.6993 54.0233 72.3854 53.9575 72.0962 53.8277ZM73.18 50.5734C72.797 50.4433 71.7213 50.1341 71.3709 51.1835C71.1428 51.8832 71.4687 52.4202 72.4547 52.7538C73.5874 53.128 74.0845 52.7538 74.2638 52.1436C74.6223 51.0778 73.5549 50.671 73.1882 50.549L73.18 50.5734Z" fill="#D24A43"/>
<path fill-rule="evenodd" clip-rule="evenodd" d="M73.0334 44.7564C72.5281 44.6913 71.86 44.8297 71.7133 46.0093L71.4443 48.271L75.9751 48.8242L76.1869 46.6845C76.2847 45.8791 76.2196 44.9354 75.1276 44.797C74.8511 44.7488 74.5666 44.8056 74.3299 44.9561C74.0931 45.1067 73.9214 45.3401 73.8483 45.6106C73.8284 45.3975 73.7372 45.1973 73.5893 45.0423C73.4415 44.8874 73.2456 44.7866 73.0334 44.7564ZM73.4652 46.4486L73.343 47.433L72.4385 47.3192L72.5526 46.3836C72.6178 45.9117 72.8785 45.8628 73.0659 45.8628C73.1326 45.8712 73.1967 45.8935 73.254 45.9285C73.3113 45.9634 73.3604 46.0102 73.3982 46.0656C73.436 46.121 73.4615 46.1838 73.4731 46.2499C73.4847 46.3159 73.482 46.3837 73.4652 46.4486ZM75.3476 46.5543L75.2091 47.6608L74.1823 47.5306L74.3046 46.5625C74.3453 46.1802 74.4838 45.8547 74.9076 45.9035C74.9799 45.9161 75.049 45.9432 75.1106 45.983C75.1722 46.0229 75.2252 46.0748 75.2663 46.1355C75.3073 46.1963 75.3356 46.2647 75.3496 46.3367C75.3636 46.4086 75.3629 46.4827 75.3476 46.5543Z" fill="#D24A43"/>
<path d="M54.2913 15.9643L53.2238 15.8098L51.0073 18.4702L51.4229 15.5576L50.3554 15.403L49.7117 19.9102L50.7465 20.0566L52.9711 17.3719L52.58 20.3495L53.6475 20.4715L54.2913 15.9643Z" fill="#D24A43"/>
<path d="M52.4089 15.0044C52.0096 14.9474 51.9118 14.7115 51.9118 14.4919L51.1947 14.3942C51.1214 15.1996 52.1318 15.4355 52.3437 15.4682C52.5556 15.5007 53.566 15.5739 53.7452 14.7603L53.0282 14.6546C52.9956 14.8742 52.8081 15.0614 52.4089 15.0044Z" fill="#D24A43"/>
<path d="M46.8758 15.4193L47.9514 15.3298L48.3262 19.8695L47.2669 19.959L47.0224 16.9976L45.458 20.1136L44.3823 20.203L44.0074 15.6634L45.0831 15.5739L45.3276 18.5027L46.8758 15.4193Z" fill="#D24A43"/>
<path d="M42.9004 19.6081C42.9374 19.3529 42.9203 19.0926 42.8503 18.8443L41.7991 19.2104C41.856 19.4434 41.8185 19.6893 41.695 19.8949C41.5715 20.1005 41.3717 20.2492 41.1391 20.3087C40.4383 20.5284 39.8841 20.0485 39.6234 19.2349C39.167 17.7785 39.9657 17.4857 40.1938 17.4124C40.2989 17.3584 40.4145 17.3277 40.5325 17.3225C40.6506 17.3175 40.7684 17.338 40.8777 17.3829C40.987 17.4279 41.0852 17.4959 41.1655 17.5825C41.2458 17.6691 41.3063 17.7721 41.3428 17.8844L42.3532 17.5671C42.1495 16.9406 41.4487 16.1027 39.9086 16.5827C39.4931 16.7129 37.8389 17.323 38.5641 19.6172C39.1019 21.3257 40.2753 21.5129 41.3917 21.163C41.6461 21.1181 41.8883 21.0205 42.1026 20.8764C42.3169 20.7324 42.4987 20.5451 42.6361 20.3267C42.7735 20.1083 42.8636 19.8635 42.9004 19.6081Z" fill="#D24A43"/>
<path d="M37.6434 20.6098C37.7588 20.8353 37.8264 21.082 37.8423 21.3348C37.858 21.5874 37.8216 21.8406 37.7352 22.0787C37.6489 22.3168 37.5144 22.5346 37.3402 22.7185C37.166 22.9025 36.9558 23.0488 36.7226 23.1481C35.7122 23.7339 34.5225 23.799 33.6261 22.2532C32.42 20.1705 33.9031 19.2187 34.278 18.999C35.6796 18.1854 36.5352 18.8607 36.9018 19.4221L35.9892 19.9509C35.9292 19.8495 35.8478 19.7623 35.7508 19.6955C35.6537 19.6285 35.5431 19.5835 35.427 19.5634C35.3108 19.5432 35.1915 19.5486 35.0776 19.579C34.9636 19.6094 34.8576 19.664 34.7669 19.7394C34.555 19.8614 33.8461 20.3251 34.6121 21.6431C35.0439 22.3834 35.6877 22.7252 36.3233 22.3591C36.5377 22.2494 36.7 22.0595 36.7748 21.8309C36.8496 21.6024 36.8308 21.3535 36.7226 21.1386L37.6434 20.6098Z" fill="#D24A43"/>
<path fill-rule="evenodd" clip-rule="evenodd" d="M28.4547 25.4091C28.584 25.6991 28.7748 25.9574 29.014 26.1665C29.2053 26.4195 29.4493 26.628 29.7292 26.7775C30.0091 26.9272 30.3183 27.0143 30.6353 27.0328C30.9522 27.0514 31.2694 27.001 31.565 26.8851C31.8605 26.7693 32.1273 26.5907 32.3469 26.3617C32.5958 26.1622 32.7977 25.9104 32.9378 25.6241C33.078 25.3377 33.1531 25.0241 33.1577 24.7054C33.1625 24.3867 33.0965 24.0709 32.9648 23.7807C32.8331 23.4904 32.6388 23.2327 32.3957 23.0261C32.2071 22.7695 31.9641 22.5575 31.684 22.4055C31.4039 22.2533 31.0936 22.1648 30.7753 22.1462C30.457 22.1276 30.1385 22.1792 29.8425 22.2975C29.5466 22.4159 29.2803 22.598 29.063 22.8309C28.8177 23.0328 28.6193 23.2855 28.4817 23.5714C28.3439 23.8575 28.2702 24.17 28.2656 24.4874C28.261 24.8047 28.3255 25.1192 28.4547 25.4091ZM29.6577 23.4817C30.4645 22.7332 31.2631 23.5224 31.5401 23.8152H31.5482L31.5551 23.8233C31.7987 24.1082 32.5349 24.9694 31.7357 25.7108C31.2957 26.1176 30.5623 26.142 29.8534 25.3773C29.1444 24.6125 29.12 23.9861 29.6577 23.4817Z" fill="#D24A43"/>
<path fill-rule="evenodd" clip-rule="evenodd" d="M27.4574 26.744C26.5203 26.1094 25.787 26.565 25.2654 27.3297L24.0594 29.0463L27.8241 31.6253L28.4353 30.7386L27.1396 29.8517L27.7182 29.0382C27.873 28.8802 27.9907 28.6897 28.0626 28.4806C28.1345 28.2714 28.1589 28.0489 28.1339 27.8292C28.109 27.6095 28.0352 27.3982 27.9182 27.2104C27.8012 27.0227 27.6439 26.8633 27.4574 26.744ZM26.8788 28.6884L26.4062 29.3799L25.404 28.6965L25.8766 28.005C25.9825 27.8016 26.284 27.3542 26.7974 27.704C27.1641 27.948 27.1641 28.2653 26.8788 28.6884Z" fill="#D24A43"/>
<path d="M59.3759 20.7808C59.2734 21.013 59.1241 21.2216 58.9372 21.3936C58.7503 21.5655 58.53 21.6972 58.29 21.7804C58.0498 21.8637 57.7952 21.8966 57.5418 21.8772C57.2884 21.8577 57.0418 21.7864 56.8172 21.6676C55.7334 21.2527 54.9186 20.3496 55.5623 18.7225C56.4179 16.4771 58.0966 17.0222 58.5039 17.1768C60.0115 17.7544 60.0359 18.8039 59.8241 19.4791L58.838 19.1048C58.8793 18.9946 58.896 18.8767 58.8872 18.7593C58.8783 18.6419 58.8441 18.5278 58.7867 18.4249C58.7294 18.3221 58.6503 18.2328 58.5551 18.1634C58.4598 18.0939 58.3507 18.046 58.2351 18.0228C58.007 17.9333 57.2001 17.6811 56.6542 19.0968C56.3446 19.9103 56.4912 20.6181 57.1758 20.8784C57.3953 20.9749 57.6441 20.9812 57.8683 20.896C58.0924 20.8107 58.274 20.6407 58.3736 20.4228L59.3759 20.7808Z" fill="#D24A43"/>
<path d="M65.5038 21.1302L64.4445 20.4387L62.0813 21.1872L63.1244 19.5601L62.2199 18.9743L59.7345 22.79L60.6309 23.4001L61.8613 21.5452L61.9999 24.2869L63.1 25.0028L62.8311 21.8787L65.5038 21.1302Z" fill="#D24A43"/>
<path d="M68.9997 24.4175L69.7576 25.1824L66.4981 28.3796L65.7402 27.6149L67.8589 25.524L64.4609 26.3375L63.703 25.5728L66.9626 22.3756L67.7203 23.1403L65.6261 25.2067L68.9997 24.4175Z" fill="#D24A43"/>
<path d="M73.3428 30.4214L72.7643 29.5102H69.2685L71.8272 27.9401L71.2568 27.0288L67.378 29.4289L67.9484 30.3401H71.4361L68.9018 31.9021L69.4641 32.8134L73.3428 30.4214Z" fill="#D24A43"/>
</svg>
